<svg width="572" height="400" viewBox="0 0 572 400" fill="none" xmlns="http://www.w3.org/2000/svg">
<g clip-path="url(#clip0_24_1131)">
<rect x="1" y="1" width="570" height="398" rx="8" fill="#FCFCFC"/>
<path d="M218.564 69V56.3174H221.166L224.98 66.0732H225.13L228.936 56.3174H231.537V69H229.498V59.9824H229.34L225.824 69H224.277L220.762 59.9824H220.612V69H218.564ZM238.551 69.1934C235.694 69.1934 233.963 67.2773 233.963 64.2188V64.21C233.963 61.1865 235.712 59.209 238.445 59.209C241.179 59.209 242.866 61.125 242.866 64.0254V64.7461H236.151C236.178 66.4688 237.109 67.4707 238.595 67.4707C239.781 67.4707 240.458 66.873 240.669 66.4336L240.695 66.3721H242.778L242.752 66.4512C242.444 67.6904 241.161 69.1934 238.551 69.1934ZM238.472 60.9229C237.25 60.9229 236.336 61.749 236.169 63.2783H240.73C240.581 61.7051 239.693 60.9229 238.472 60.9229ZM245.055 69V59.3936H247.243V60.8877H247.393C247.806 59.8154 248.772 59.209 250.029 59.209C251.33 59.209 252.279 59.877 252.692 60.9404H252.842C253.308 59.8945 254.415 59.209 255.751 59.209C257.685 59.209 258.845 60.3955 258.845 62.3906V69H256.656V62.9268C256.656 61.6787 256.085 61.0459 254.916 61.0459C253.773 61.0459 253.035 61.8984 253.035 62.9971V69H250.847V62.7686C250.847 61.7051 250.188 61.0459 249.115 61.0459C248.034 61.0459 247.243 61.96 247.243 63.1553V69H245.055ZM266.781 69.1582C265.437 69.1582 264.391 68.543 263.863 67.4971H263.714V69H261.525V55.6758H263.714V60.9229H263.863C264.364 59.8857 265.463 59.2354 266.781 59.2354C269.216 59.2354 270.728 61.1338 270.728 64.1924V64.21C270.728 67.251 269.189 69.1582 266.781 69.1582ZM266.096 67.3125C267.59 67.3125 268.495 66.1436 268.495 64.21V64.1924C268.495 62.2588 267.59 61.0811 266.096 61.0811C264.61 61.0811 263.688 62.2676 263.688 64.1924V64.21C263.688 66.1348 264.61 67.3125 266.096 67.3125ZM277.029 69.1934C274.173 69.1934 272.441 67.2773 272.441 64.2188V64.21C272.441 61.1865 274.19 59.209 276.924 59.209C279.657 59.209 281.345 61.125 281.345 64.0254V64.7461H274.63C274.656 66.4688 275.588 67.4707 277.073 67.4707C278.26 67.4707 278.937 66.873 279.147 66.4336L279.174 66.3721H281.257L281.23 66.4512C280.923 67.6904 279.64 69.1934 277.029 69.1934ZM276.95 60.9229C275.729 60.9229 274.814 61.749 274.647 63.2783H279.209C279.06 61.7051 278.172 60.9229 276.95 60.9229ZM283.533 69V59.3936H285.722V60.8701H285.871C286.196 59.8418 287.075 59.2354 288.341 59.2354C288.675 59.2354 289.018 59.2793 289.229 59.3408V61.3008C288.877 61.2305 288.517 61.1777 288.139 61.1777C286.68 61.1777 285.722 62.0479 285.722 63.4189V69H283.533ZM295.82 72.1904V59.3936H298.009V60.8965H298.158C298.686 59.8506 299.731 59.2354 301.076 59.2354C303.484 59.2354 305.022 61.1514 305.022 64.1924V64.21C305.022 67.2686 303.511 69.1582 301.076 69.1582C299.758 69.1582 298.659 68.5078 298.158 67.4707H298.009V72.1904H295.82ZM300.391 67.3125C301.885 67.3125 302.79 66.1348 302.79 64.21V64.1924C302.79 62.2588 301.885 61.0811 300.391 61.0811C298.905 61.0811 297.982 62.2588 297.982 64.1836V64.2012C297.982 66.126 298.905 67.3125 300.391 67.3125ZM307.229 69V59.3936H309.417V60.8701H309.566C309.892 59.8418 310.771 59.2354 312.036 59.2354C312.37 59.2354 312.713 59.2793 312.924 59.3408V61.3008C312.572 61.2305 312.212 61.1777 311.834 61.1777C310.375 61.1777 309.417 62.0479 309.417 63.4189V69H307.229ZM318.619 69.1934C315.736 69.1934 313.996 67.3125 313.996 64.2012V64.1836C313.996 61.0986 315.763 59.209 318.619 59.209C321.484 59.209 323.242 61.0898 323.242 64.1836V64.2012C323.242 67.3125 321.493 69.1934 318.619 69.1934ZM318.619 67.418C320.14 67.418 321.001 66.2314 321.001 64.21V64.1924C321.001 62.1709 320.131 60.9756 318.619 60.9756C317.099 60.9756 316.229 62.1709 316.229 64.1924V64.21C316.229 66.2314 317.099 67.418 318.619 67.418ZM326.143 69V61.0898H324.569V59.3936H326.143V58.4443C326.143 56.5283 327.118 55.5879 329.254 55.5879C329.72 55.5879 330.115 55.6143 330.467 55.6758V57.2051C330.3 57.1787 330.027 57.1611 329.72 57.1611C328.691 57.1611 328.296 57.6533 328.296 58.5674V59.3936H330.379V61.0898H328.331V69H326.143ZM333.613 57.7852C332.893 57.7852 332.304 57.2139 332.304 56.4932C332.304 55.7812 332.893 55.2012 333.613 55.2012C334.325 55.2012 334.914 55.7812 334.914 56.4932C334.914 57.2139 334.325 57.7852 333.613 57.7852ZM332.515 69V59.3936H334.703V69H332.515ZM337.48 69V55.6758H339.669V69H337.48ZM346.551 69.1934C343.694 69.1934 341.963 67.2773 341.963 64.2188V64.21C341.963 61.1865 343.712 59.209 346.445 59.209C349.179 59.209 350.866 61.125 350.866 64.0254V64.7461H344.151C344.178 66.4688 345.109 67.4707 346.595 67.4707C347.781 67.4707 348.458 66.873 348.669 66.4336L348.695 66.3721H350.778L350.752 66.4512C350.444 67.6904 349.161 69.1934 346.551 69.1934ZM346.472 60.9229C345.25 60.9229 344.336 61.749 344.169 63.2783H348.73C348.581 61.7051 347.693 60.9229 346.472 60.9229ZM356.685 69.1934C354.241 69.1934 352.765 68.0684 352.58 66.4424V66.4248H354.751L354.76 66.4424C354.988 67.1104 355.63 67.5762 356.72 67.5762C357.81 67.5762 358.565 67.084 358.565 66.3633V66.3457C358.565 65.7832 358.144 65.4141 357.089 65.1768L355.533 64.8252C353.705 64.4209 352.835 63.5596 352.835 62.1445V62.1357C352.835 60.4043 354.417 59.209 356.685 59.209C359.022 59.209 360.42 60.3691 360.561 61.9248V61.9424H358.504L358.495 61.916C358.337 61.3096 357.704 60.8174 356.676 60.8174C355.7 60.8174 354.997 61.292 354.997 62.0127V62.0215C354.997 62.584 355.401 62.9268 356.438 63.1641L357.994 63.5068C359.875 63.9287 360.763 64.7285 360.763 66.126V66.1436C360.763 67.9717 359.049 69.1934 356.685 69.1934Z" fill="#171717"/>
<path d="M150.606 97L155.282 84.3174H156.847L161.522 97H159.861L158.587 93.3701H153.542L152.268 97H150.606ZM155.994 86.3652L154.008 92.0254H158.121L156.135 86.3652H155.994ZM166.286 97.167C164.133 97.167 163.025 95.9014 163.025 93.6602V87.5254H164.555V93.291C164.555 94.9961 165.17 95.8135 166.682 95.8135C168.352 95.8135 169.239 94.7939 169.239 93.1328V87.5254H170.769V97H169.239V95.585H169.099C168.633 96.5957 167.675 97.167 166.286 97.167ZM176.991 97.0703C175.04 97.0703 174.223 96.3496 174.223 94.5391V88.791H172.729V87.5254H174.223V85.0732H175.805V87.5254H177.879V88.791H175.805V94.1523C175.805 95.2686 176.191 95.7168 177.176 95.7168C177.448 95.7168 177.598 95.708 177.879 95.6816V96.9824C177.58 97.0352 177.29 97.0703 176.991 97.0703ZM183.917 97.167C181.219 97.167 179.549 95.3037 179.549 92.2715V92.2539C179.549 89.2129 181.219 87.3584 183.917 87.3584C186.615 87.3584 188.285 89.2129 188.285 92.2539V92.2715C188.285 95.3037 186.615 97.167 183.917 97.167ZM183.917 95.8135C185.71 95.8135 186.721 94.5039 186.721 92.2715V92.2539C186.721 90.0127 185.71 88.7119 183.917 88.7119C182.124 88.7119 181.113 90.0127 181.113 92.2539V92.2715C181.113 94.5039 182.124 95.8135 183.917 95.8135ZM190.658 97V87.5254H192.188V88.9668H192.328C192.75 87.9473 193.646 87.3584 194.886 87.3584C196.169 87.3584 197.065 88.0352 197.505 89.0195H197.646C198.155 88.0176 199.236 87.3584 200.546 87.3584C202.479 87.3584 203.561 88.4658 203.561 90.4521V97H202.031V90.8037C202.031 89.4062 201.39 88.7119 200.054 88.7119C198.735 88.7119 197.865 89.7051 197.865 90.9092V97H196.336V90.5664C196.336 89.4414 195.562 88.7119 194.367 88.7119C193.128 88.7119 192.188 89.793 192.188 91.1289V97H190.658ZM208.922 97.167C207.12 97.167 205.758 96.0771 205.758 94.3545V94.3369C205.758 92.6494 207.006 91.6738 209.212 91.542L211.928 91.375V90.5137C211.928 89.3447 211.216 88.7119 209.801 88.7119C208.667 88.7119 207.92 89.1338 207.674 89.8721L207.665 89.8984H206.136L206.145 89.8457C206.391 88.3604 207.832 87.3584 209.854 87.3584C212.165 87.3584 213.457 88.5449 213.457 90.5137V97H211.928V95.6025H211.787C211.189 96.6133 210.196 97.167 208.922 97.167ZM207.322 94.3193C207.322 95.2773 208.14 95.8398 209.238 95.8398C210.794 95.8398 211.928 94.8203 211.928 93.4668V92.6055L209.396 92.7637C207.955 92.8516 207.322 93.3613 207.322 94.3018V94.3193ZM219.618 97.0703C217.667 97.0703 216.85 96.3496 216.85 94.5391V88.791H215.355V87.5254H216.85V85.0732H218.432V87.5254H220.506V88.791H218.432V94.1523C218.432 95.2686 218.818 95.7168 219.803 95.7168C220.075 95.7168 220.225 95.708 220.506 95.6816V96.9824C220.207 97.0352 219.917 97.0703 219.618 97.0703ZM223.6 85.6973C223.02 85.6973 222.545 85.2227 222.545 84.6426C222.545 84.0625 223.02 83.5879 223.6 83.5879C224.18 83.5879 224.654 84.0625 224.654 84.6426C224.654 85.2227 224.18 85.6973 223.6 85.6973ZM222.826 97V87.5254H224.355V97H222.826ZM231.114 97.167C228.46 97.167 226.764 95.2422 226.764 92.2363V92.2188C226.764 89.2744 228.451 87.3584 231.105 87.3584C233.408 87.3584 234.788 88.6855 235.069 90.373L235.078 90.4258H233.558L233.549 90.3994C233.312 89.4678 232.468 88.7119 231.105 88.7119C229.4 88.7119 228.328 90.083 228.328 92.2188V92.2363C228.328 94.416 229.418 95.8135 231.105 95.8135C232.38 95.8135 233.188 95.251 233.54 94.1963L233.558 94.1436L235.069 94.1348L235.052 94.2314C234.665 95.9453 233.391 97.167 231.114 97.167ZM242.373 100.164V87.5254H243.902V89.0371H244.043C244.623 87.9824 245.678 87.3584 246.996 87.3584C249.396 87.3584 250.969 89.3008 250.969 92.2539V92.2715C250.969 95.2422 249.404 97.167 246.996 97.167C245.695 97.167 244.562 96.5166 244.043 95.5059H243.902V100.164H242.373ZM246.645 95.8135C248.376 95.8135 249.404 94.4775 249.404 92.2715V92.2539C249.404 90.0479 248.376 88.7119 246.645 88.7119C244.922 88.7119 243.867 90.0654 243.867 92.2539V92.2715C243.867 94.46 244.922 95.8135 246.645 95.8135ZM257.253 97.167C254.555 97.167 252.885 95.3037 252.885 92.2715V92.2539C252.885 89.2129 254.555 87.3584 257.253 87.3584C259.951 87.3584 261.621 89.2129 261.621 92.2539V92.2715C261.621 95.3037 259.951 97.167 257.253 97.167ZM257.253 95.8135C259.046 95.8135 260.057 94.5039 260.057 92.2715V92.2539C260.057 90.0127 259.046 88.7119 257.253 88.7119C255.46 88.7119 254.449 90.0127 254.449 92.2539V92.2715C254.449 94.5039 255.46 95.8135 257.253 95.8135ZM263.994 97V87.5254H265.523V88.9316H265.664C266.024 87.9385 266.912 87.3584 268.195 87.3584C268.485 87.3584 268.811 87.3936 268.96 87.4199V88.9053C268.644 88.8525 268.354 88.8174 268.02 88.8174C266.561 88.8174 265.523 89.7402 265.523 91.1289V97H263.994ZM274.392 97.0703C272.44 97.0703 271.623 96.3496 271.623 94.5391V88.791H270.129V87.5254H271.623V85.0732H273.205V87.5254H275.279V88.791H273.205V94.1523C273.205 95.2686 273.592 95.7168 274.576 95.7168C274.849 95.7168 274.998 95.708 275.279 95.6816V96.9824C274.98 97.0352 274.69 97.0703 274.392 97.0703ZM278.197 97V88.791H276.624V87.5254H278.197V86.4707C278.197 84.5811 279.146 83.6758 280.948 83.6758C281.317 83.6758 281.651 83.7021 281.968 83.7637V84.9854C281.783 84.9502 281.528 84.9414 281.256 84.9414C280.166 84.9414 279.727 85.4775 279.727 86.5146V87.5254H281.88V88.791H279.727V97H278.197ZM287.575 97.167C284.877 97.167 283.207 95.3037 283.207 92.2715V92.2539C283.207 89.2129 284.877 87.3584 287.575 87.3584C290.273 87.3584 291.943 89.2129 291.943 92.2539V92.2715C291.943 95.3037 290.273 97.167 287.575 97.167ZM287.575 95.8135C289.368 95.8135 290.379 94.5039 290.379 92.2715V92.2539C290.379 90.0127 289.368 88.7119 287.575 88.7119C285.782 88.7119 284.771 90.0127 284.771 92.2539V92.2715C284.771 94.5039 285.782 95.8135 287.575 95.8135ZM294.404 97V83.7637H295.934V97H294.404ZM299.678 85.6973C299.098 85.6973 298.623 85.2227 298.623 84.6426C298.623 84.0625 299.098 83.5879 299.678 83.5879C300.258 83.5879 300.732 84.0625 300.732 84.6426C300.732 85.2227 300.258 85.6973 299.678 85.6973ZM298.904 97V87.5254H300.434V97H298.904ZM307.21 97.167C304.512 97.167 302.842 95.3037 302.842 92.2715V92.2539C302.842 89.2129 304.512 87.3584 307.21 87.3584C309.908 87.3584 311.578 89.2129 311.578 92.2539V92.2715C311.578 95.3037 309.908 97.167 307.21 97.167ZM307.21 95.8135C309.003 95.8135 310.014 94.5039 310.014 92.2715V92.2539C310.014 90.0127 309.003 88.7119 307.21 88.7119C305.417 88.7119 304.406 90.0127 304.406 92.2539V92.2715C304.406 94.5039 305.417 95.8135 307.21 95.8135ZM317.203 97.167C315.094 97.167 313.644 96.1475 313.468 94.583H315.032C315.287 95.374 316.043 95.8926 317.256 95.8926C318.53 95.8926 319.436 95.2861 319.436 94.4248V94.4072C319.436 93.7656 318.952 93.3174 317.783 93.0361L316.315 92.6846C314.54 92.2627 313.74 91.4893 313.74 90.127V90.1182C313.74 88.5449 315.252 87.3584 317.265 87.3584C319.251 87.3584 320.631 88.3516 320.842 89.8984H319.339C319.137 89.1514 318.398 88.6328 317.256 88.6328C316.131 88.6328 315.305 89.2129 315.305 90.0479V90.0654C315.305 90.707 315.779 91.1113 316.896 91.3838L318.354 91.7354C320.139 92.166 321 92.9395 321 94.293V94.3105C321 95.998 319.356 97.167 317.203 97.167ZM332.329 97.167C329.631 97.167 327.961 95.3037 327.961 92.2715V92.2539C327.961 89.2129 329.631 87.3584 332.329 87.3584C335.027 87.3584 336.697 89.2129 336.697 92.2539V92.2715C336.697 95.3037 335.027 97.167 332.329 97.167ZM332.329 95.8135C334.122 95.8135 335.133 94.5039 335.133 92.2715V92.2539C335.133 90.0127 334.122 88.7119 332.329 88.7119C330.536 88.7119 329.525 90.0127 329.525 92.2539V92.2715C329.525 94.5039 330.536 95.8135 332.329 95.8135ZM339.703 97V88.791H338.13V87.5254H339.703V86.4707C339.703 84.5811 340.652 83.6758 342.454 83.6758C342.823 83.6758 343.157 83.7021 343.474 83.7637V84.9854C343.289 84.9502 343.034 84.9414 342.762 84.9414C341.672 84.9414 341.232 85.4775 341.232 86.5146V87.5254H343.386V88.791H341.232V97H339.703ZM351.463 100.322C351.261 100.322 350.997 100.305 350.786 100.27V99.0127C350.971 99.0479 351.208 99.0566 351.419 99.0566C352.289 99.0566 352.816 98.6611 353.159 97.5713L353.335 97.0088L349.828 87.5254H351.463L354.064 95.3213H354.205L356.798 87.5254H358.406L354.706 97.5801C353.924 99.707 353.142 100.322 351.463 100.322ZM363.97 97.167C361.271 97.167 359.602 95.3037 359.602 92.2715V92.2539C359.602 89.2129 361.271 87.3584 363.97 87.3584C366.668 87.3584 368.338 89.2129 368.338 92.2539V92.2715C368.338 95.3037 366.668 97.167 363.97 97.167ZM363.97 95.8135C365.763 95.8135 366.773 94.5039 366.773 92.2715V92.2539C366.773 90.0127 365.763 88.7119 363.97 88.7119C362.177 88.7119 361.166 90.0127 361.166 92.2539V92.2715C361.166 94.5039 362.177 95.8135 363.97 95.8135ZM373.884 97.167C371.73 97.167 370.623 95.9014 370.623 93.6602V87.5254H372.152V93.291C372.152 94.9961 372.768 95.8135 374.279 95.8135C375.949 95.8135 376.837 94.7939 376.837 93.1328V87.5254H378.366V97H376.837V95.585H376.696C376.23 96.5957 375.272 97.167 373.884 97.167ZM381.223 97V87.5254H382.752V88.9316H382.893C383.253 87.9385 384.141 87.3584 385.424 87.3584C385.714 87.3584 386.039 87.3936 386.188 87.4199V88.9053C385.872 88.8525 385.582 88.8174 385.248 88.8174C383.789 88.8174 382.752 89.7402 382.752 91.1289V97H381.223ZM394.969 97L392.314 87.5254H393.844L395.707 95.1016H395.848L397.966 87.5254H399.416L401.534 95.1016H401.675L403.538 87.5254H405.059L402.404 97H400.866L398.748 89.6699H398.607L396.498 97H394.969ZM410.622 97.167C407.924 97.167 406.254 95.3037 406.254 92.2715V92.2539C406.254 89.2129 407.924 87.3584 410.622 87.3584C413.32 87.3584 414.99 89.2129 414.99 92.2539V92.2715C414.99 95.3037 413.32 97.167 410.622 97.167ZM410.622 95.8135C412.415 95.8135 413.426 94.5039 413.426 92.2715V92.2539C413.426 90.0127 412.415 88.7119 410.622 88.7119C408.829 88.7119 407.818 90.0127 407.818 92.2539V92.2715C407.818 94.5039 408.829 95.8135 410.622 95.8135ZM417.363 97V87.5254H418.893V88.9316H419.033C419.394 87.9385 420.281 87.3584 421.564 87.3584C421.854 87.3584 422.18 87.3936 422.329 87.4199V88.9053C422.013 88.8525 421.723 88.8174 421.389 88.8174C419.93 88.8174 418.893 89.7402 418.893 91.1289V97H417.363ZM424.307 97V83.7637H425.836V91.665H425.977L430.072 87.5254H431.927L427.796 91.5068L432.199 97H430.274L426.724 92.5439L425.836 93.4053V97H424.307ZM435.24 97.0879C434.616 97.0879 434.098 96.5693 434.098 95.9453C434.098 95.3125 434.616 94.8027 435.24 94.8027C435.873 94.8027 436.383 95.3125 436.383 95.9453C436.383 96.5693 435.873 97.0879 435.24 97.0879Z" fill="#525252"/>
<g filter="url(#filter0_d_24_1131)">
<rect x="49" y="189" width="475" height="243" rx="16.5174" fill="white"/>
</g>
<path d="M267.533 375.773C258.898 352.065 239.6 367.038 230.316 377.512V402.223H485.157V322.243C481.907 320.815 474.769 321.406 472.541 331.69C464.971 361.289 449.832 360.029 444.772 342.367C440.594 306.659 446.165 273.808 432.239 270.952C415.528 266.667 419.706 246.671 418.313 230.959C414.135 208.106 393.247 212.391 393.247 235.244C393.247 258.097 393.247 280.95 382.106 286.663C358.433 298.089 373.292 351.628 362.152 358.77C337.086 371.624 346.43 322.243 332.504 322.243C321.364 322.243 318.048 312.373 318.048 306.659C313.87 259.525 291.589 302.374 291.589 345.224C291.589 388.073 277.625 403.483 267.533 375.773Z" fill="#F9F9F9"/>
<rect x="95" y="230" width="129" height="42" rx="21" fill="url(#paint0_linear_24_1131)"/>
<path d="M122.787 245.504H124.67V257H122.787L117.122 248.427V257H115.239V245.504H117.122L122.787 254.06V245.504ZM130.975 257.149C129.654 257.149 128.58 256.719 127.754 255.86C126.928 255.001 126.515 253.862 126.515 252.441C126.515 251.021 126.934 249.886 127.771 249.039C128.608 248.18 129.687 247.75 131.008 247.75C132.34 247.75 133.42 248.163 134.245 248.989C135.071 249.804 135.484 250.872 135.484 252.193C135.484 252.513 135.462 252.81 135.418 253.085H128.448C128.492 253.845 128.745 254.451 129.208 254.902C129.681 255.343 130.27 255.563 130.975 255.563C131.999 255.563 132.72 255.139 133.139 254.291H135.17C134.895 255.128 134.394 255.816 133.667 256.356C132.941 256.884 132.043 257.149 130.975 257.149ZM133.519 251.797C133.508 251.048 133.26 250.454 132.775 250.013C132.291 249.562 131.702 249.336 131.008 249.336C130.314 249.336 129.731 249.562 129.257 250.013C128.795 250.454 128.53 251.048 128.464 251.797H133.519ZM147.71 247.899H149.56L146.736 257H144.754L142.92 250.277L141.087 257H139.105L136.264 247.899H138.18L140.079 255.216L142.012 247.899H143.977L145.827 255.183L147.71 247.899ZM155.919 245.52H157.802V255.563H161.684V257H155.919V245.52ZM167.091 257.149C165.769 257.149 164.696 256.719 163.87 255.86C163.044 255.001 162.631 253.862 162.631 252.441C162.631 251.021 163.05 249.886 163.886 249.039C164.723 248.18 165.802 247.75 167.124 247.75C168.456 247.75 169.535 248.163 170.361 248.989C171.187 249.804 171.6 250.872 171.6 252.193C171.6 252.513 171.578 252.81 171.534 253.085H164.564C164.608 253.845 164.861 254.451 165.323 254.902C165.797 255.343 166.386 255.563 167.091 255.563C168.115 255.563 168.836 255.139 169.255 254.291H171.286C171.011 255.128 170.51 255.816 169.783 256.356C169.056 256.884 168.159 257.149 167.091 257.149ZM169.635 251.797C169.623 251.048 169.376 250.454 168.891 250.013C168.407 249.562 167.818 249.336 167.124 249.336C166.43 249.336 165.847 249.562 165.373 250.013C164.911 250.454 164.646 251.048 164.58 251.797H169.635ZM179.449 254.688C180 254.126 180.275 253.377 180.275 252.441C180.275 251.505 180 250.762 179.449 250.211C178.909 249.661 178.265 249.385 177.516 249.385C176.768 249.385 176.118 249.655 175.567 250.195C175.028 250.734 174.758 251.472 174.758 252.408C174.758 253.344 175.028 254.098 175.567 254.671C176.118 255.233 176.768 255.513 177.516 255.513C178.265 255.513 178.909 255.238 179.449 254.688ZM177.12 257.149C175.909 257.149 174.89 256.708 174.064 255.827C173.238 254.935 172.825 253.801 172.825 252.425C172.825 251.037 173.233 249.914 174.048 249.055C174.874 248.185 175.898 247.75 177.12 247.75C177.836 247.75 178.463 247.915 179.003 248.246C179.554 248.565 179.978 248.989 180.275 249.518V247.899H182.174V257H180.275V255.299C179.967 255.86 179.543 256.312 179.003 256.653C178.463 256.983 177.836 257.149 177.12 257.149ZM190.643 254.688C191.194 254.126 191.469 253.377 191.469 252.441C191.469 251.505 191.194 250.762 190.643 250.211C190.104 249.661 189.46 249.385 188.711 249.385C187.962 249.385 187.312 249.655 186.762 250.195C186.222 250.734 185.952 251.472 185.952 252.408C185.952 253.344 186.222 254.098 186.762 254.671C187.312 255.233 187.962 255.513 188.711 255.513C189.46 255.513 190.104 255.238 190.643 254.688ZM188.314 257.149C187.103 257.149 186.085 256.708 185.259 255.827C184.433 254.935 184.02 253.801 184.02 252.425C184.02 251.037 184.427 249.914 185.242 249.055C186.068 248.185 187.092 247.75 188.314 247.75C189.03 247.75 189.658 247.915 190.197 248.246C190.748 248.565 191.172 248.989 191.469 249.518V244.777H193.369V257H191.469V255.299C191.161 255.86 190.737 256.312 190.197 256.653C189.658 256.983 189.03 257.149 188.314 257.149ZM195.429 250.509C195.429 249.738 195.754 249.088 196.404 248.56C197.053 248.02 197.907 247.75 198.964 247.75C200.021 247.75 200.858 248.015 201.474 248.543C202.102 249.061 202.438 249.771 202.482 250.674H200.549C200.516 250.222 200.357 249.87 200.07 249.617C199.795 249.363 199.404 249.237 198.898 249.237C198.391 249.237 197.995 249.352 197.708 249.584C197.422 249.804 197.279 250.101 197.279 250.476C197.279 250.839 197.461 251.125 197.824 251.335C198.187 251.544 198.628 251.698 199.146 251.797C199.674 251.896 200.197 252.017 200.715 252.16C201.243 252.304 201.689 252.568 202.053 252.953C202.416 253.328 202.598 253.834 202.598 254.473C202.598 255.266 202.262 255.91 201.59 256.405C200.929 256.901 200.076 257.149 199.03 257.149C197.984 257.149 197.136 256.895 196.486 256.389C195.837 255.882 195.479 255.161 195.413 254.225H197.362C197.395 254.677 197.56 255.029 197.857 255.282C198.154 255.535 198.556 255.662 199.063 255.662C199.58 255.662 199.988 255.552 200.285 255.332C200.594 255.1 200.748 254.798 200.748 254.423C200.748 254.049 200.566 253.757 200.203 253.548C199.839 253.339 199.393 253.184 198.865 253.085C198.347 252.975 197.824 252.854 197.296 252.722C196.778 252.579 196.338 252.326 195.974 251.962C195.611 251.599 195.429 251.114 195.429 250.509Z" fill="white"/>
<path d="M97.0529 315.568C97.1945 313.374 98.0321 311.663 99.5659 310.436C101.123 309.209 103.117 308.596 105.548 308.596C108.002 308.596 109.925 309.233 111.317 310.507C112.733 311.758 113.441 313.362 113.441 315.321C113.441 316.784 113.051 318.034 112.273 319.072C111.494 320.111 110.562 320.807 109.476 321.161V321.302C110.869 321.727 111.954 322.506 112.733 323.638C113.511 324.747 113.901 326.269 113.901 328.204C113.901 330.139 113.169 331.779 111.706 333.124C110.267 334.469 108.249 335.142 105.654 335.142C103.082 335.142 100.97 334.493 99.3181 333.195C97.69 331.873 96.8169 329.986 96.6989 327.532H100.592C100.687 328.782 101.17 329.809 102.044 330.611C102.917 331.39 104.085 331.779 105.548 331.779C107.011 331.779 108.131 331.39 108.91 330.611C109.689 329.809 110.078 328.782 110.078 327.532C110.078 325.88 109.547 324.712 108.485 324.028C107.447 323.32 105.843 322.966 103.672 322.966H102.751V319.639H103.707C107.624 319.592 109.583 318.306 109.583 315.781C109.583 314.648 109.217 313.751 108.485 313.091C107.754 312.406 106.716 312.064 105.371 312.064C104.049 312.064 103.023 312.406 102.291 313.091C101.56 313.751 101.123 314.577 100.982 315.568H97.0529ZM117.29 332.239H121.112C122.033 335.731 121.867 338.115 120.617 339.389C119.933 340.12 118.93 340.486 117.608 340.486V338.716C118.198 338.716 118.623 338.575 118.882 338.292C119.166 338.009 119.307 337.537 119.307 336.876V336.133H117.29V332.239ZM124.586 309.304H141.646V312.312L131.807 335H127.382L137.682 312.666H124.586V309.304ZM144.781 334.646V331.708C145.371 331.189 146.232 330.446 147.365 329.478C148.498 328.511 149.359 327.768 149.949 327.249C150.562 326.706 151.317 326.022 152.214 325.196C153.111 324.346 153.807 323.627 154.302 323.037C154.798 322.423 155.305 321.739 155.824 320.984C156.792 319.615 157.276 318.247 157.276 316.878C157.276 313.952 155.883 312.489 153.099 312.489C151.707 312.489 150.621 312.937 149.843 313.834C149.088 314.707 148.687 315.887 148.639 317.374H144.746C144.817 314.684 145.619 312.631 147.153 311.215C148.71 309.775 150.728 309.056 153.205 309.056C155.683 309.056 157.641 309.752 159.081 311.144C160.544 312.536 161.275 314.377 161.275 316.666C161.275 318.388 160.815 320.028 159.895 321.585C159.399 322.388 158.927 323.107 158.479 323.745C158.031 324.358 157.405 325.066 156.603 325.868C155.801 326.67 155.164 327.296 154.692 327.744C154.22 328.192 153.524 328.818 152.603 329.62C151.707 330.422 151.093 330.977 150.763 331.284H161.983V334.646H144.781ZM169.987 316.984C169.987 318.447 170.4 319.651 171.226 320.594C172.076 321.515 173.279 321.975 174.837 321.975C176.394 321.975 177.574 321.538 178.376 320.665C179.202 319.769 179.615 318.553 179.615 317.02C179.615 315.462 179.178 314.235 178.305 313.339C177.456 312.418 176.288 311.958 174.801 311.958C173.315 311.958 172.135 312.43 171.262 313.374C170.412 314.294 169.987 315.498 169.987 316.984ZM175.226 331.602C176.901 331.602 178.128 330.941 178.907 329.62C179.686 328.299 180.075 326.045 180.075 322.86C179.509 323.662 178.706 324.287 177.668 324.736C176.653 325.16 175.544 325.373 174.341 325.373C171.958 325.373 169.987 324.653 168.43 323.214C166.896 321.774 166.129 319.757 166.129 317.161C166.129 314.542 166.885 312.465 168.395 310.932C169.928 309.374 172.029 308.596 174.695 308.596C177.904 308.596 180.181 309.669 181.526 311.817C182.895 313.94 183.579 317.256 183.579 321.762C183.579 326.269 182.954 329.596 181.703 331.744C180.452 333.891 178.211 334.965 174.978 334.965C172.453 334.965 170.507 334.304 169.138 332.983C167.769 331.661 167.003 329.998 166.837 327.992H170.554C171.026 330.399 172.583 331.602 175.226 331.602Z" fill="#161C28"/>
<path d="M95.8495 362.582H106.086V364.387L100.182 378H97.5272L103.707 364.6H95.8495V362.582ZM111.003 363.113C111.74 362.717 112.632 362.518 113.679 362.518C114.727 362.518 115.619 362.717 116.355 363.113C117.091 363.495 117.658 364.047 118.054 364.77C118.465 365.492 118.755 366.299 118.925 367.191C119.109 368.068 119.201 369.081 119.201 370.227C119.201 371.374 119.109 372.394 118.925 373.285C118.755 374.163 118.465 374.97 118.054 375.706C117.658 376.428 117.091 376.988 116.355 377.384C115.619 377.766 114.727 377.958 113.679 377.958C112.632 377.958 111.74 377.766 111.003 377.384C110.267 376.988 109.694 376.428 109.283 375.706C108.887 374.97 108.597 374.163 108.412 373.285C108.243 372.394 108.158 371.374 108.158 370.227C108.158 369.081 108.243 368.068 108.412 367.191C108.597 366.299 108.887 365.492 109.283 364.77C109.694 364.047 110.267 363.495 111.003 363.113ZM113.679 364.727C113 364.727 112.44 364.876 112.001 365.173C111.563 365.456 111.244 365.881 111.046 366.447C110.706 367.424 110.536 368.684 110.536 370.227C110.536 371.785 110.706 373.052 111.046 374.029C111.442 375.176 112.32 375.749 113.679 375.749C115.038 375.749 115.916 375.176 116.313 374.029C116.652 373.052 116.822 371.785 116.822 370.227C116.822 368.684 116.652 367.424 116.313 366.447C115.916 365.3 115.038 364.727 113.679 364.727ZM124.014 377.597C123.73 377.866 123.383 378 122.973 378C122.562 378 122.215 377.858 121.932 377.575C121.663 377.292 121.529 376.952 121.529 376.556C121.529 376.145 121.663 375.798 121.932 375.515C122.215 375.232 122.562 375.091 122.973 375.091C123.383 375.091 123.73 375.232 124.014 375.515C124.297 375.798 124.438 376.145 124.438 376.556C124.438 376.966 124.297 377.313 124.014 377.597ZM129.606 363.113C130.342 362.717 131.234 362.518 132.282 362.518C133.33 362.518 134.222 362.717 134.958 363.113C135.694 363.495 136.26 364.047 136.657 364.77C137.067 365.492 137.358 366.299 137.528 367.191C137.712 368.068 137.804 369.081 137.804 370.227C137.804 371.374 137.712 372.394 137.528 373.285C137.358 374.163 137.067 374.97 136.657 375.706C136.26 376.428 135.694 376.988 134.958 377.384C134.222 377.766 133.33 377.958 132.282 377.958C131.234 377.958 130.342 377.766 129.606 377.384C128.87 376.988 128.297 376.428 127.886 375.706C127.49 374.97 127.199 374.163 127.015 373.285C126.845 372.394 126.761 371.374 126.761 370.227C126.761 369.081 126.845 368.068 127.015 367.191C127.199 366.299 127.49 365.492 127.886 364.77C128.297 364.047 128.87 363.495 129.606 363.113ZM132.282 364.727C131.602 364.727 131.043 364.876 130.604 365.173C130.165 365.456 129.847 365.881 129.649 366.447C129.309 367.424 129.139 368.684 129.139 370.227C129.139 371.785 129.309 373.052 129.649 374.029C130.045 375.176 130.923 375.749 132.282 375.749C133.641 375.749 134.519 375.176 134.915 374.029C135.255 373.052 135.425 371.785 135.425 370.227C135.425 368.684 135.255 367.424 134.915 366.447C134.519 365.3 133.641 364.727 132.282 364.727ZM151.663 374.942C151.663 373.753 151.217 373.158 150.325 373.158C149.433 373.158 148.987 373.753 148.987 374.942C148.987 376.131 149.433 376.726 150.325 376.726C151.217 376.726 151.663 376.131 151.663 374.942ZM148.011 377.342C147.416 376.747 147.119 375.947 147.119 374.942C147.119 373.937 147.416 373.144 148.011 372.563C148.619 371.983 149.391 371.693 150.325 371.693C151.274 371.693 152.045 371.983 152.64 372.563C153.249 373.144 153.553 373.937 153.553 374.942C153.553 375.947 153.249 376.747 152.64 377.342C152.045 377.922 151.274 378.212 150.325 378.212C149.391 378.212 148.619 377.922 148.011 377.342ZM141.321 378L149.794 363.219H152.173L143.699 378H141.321ZM144.528 366.277C144.528 365.074 144.082 364.472 143.19 364.472C142.298 364.472 141.852 365.074 141.852 366.277C141.852 367.467 142.298 368.061 143.19 368.061C144.082 368.061 144.528 367.467 144.528 366.277ZM140.854 368.656C140.259 368.061 139.962 367.261 139.962 366.256C139.962 365.251 140.259 364.458 140.854 363.878C141.463 363.297 142.241 363.007 143.19 363.007C144.138 363.007 144.91 363.297 145.505 363.878C146.113 364.458 146.418 365.251 146.418 366.256C146.418 367.261 146.113 368.061 145.505 368.656C144.91 369.236 144.138 369.527 143.19 369.527C142.241 369.527 141.463 369.236 140.854 368.656Z" fill="#B7BECB"/>
<path d="M231.496 376.568C240.736 366.281 261.159 351.6 268.921 375.165C278.624 404.621 292.485 384.984 292.485 342.903C292.485 300.822 314.663 258.741 318.821 305.03C318.821 310.641 321.594 321.863 332.683 321.863C346.544 321.863 338.227 370.957 363.177 358.332C374.266 351.319 359.019 296.614 382.583 285.393C393.672 279.782 393.672 257.339 393.672 234.896C393.672 212.453 414.464 208.245 418.622 230.688C420.009 246.117 415.85 265.755 432.484 269.963C446.345 272.768 440.8 305.03 444.959 340.097C449.117 361.138 465.751 359.735 472.681 330.279C474.899 320.179 481.922 320.46 485.156 321.863" stroke="black" stroke-width="3.53945" stroke-linecap="round"/>
</g>
<rect x="0.5" y="0.5" width="571" height="399" rx="8.5" stroke="black" stroke-opacity="0.05"/>
<defs>
<filter id="filter0_d_24_1131" x="13" y="149" width="547" height="315" filterUnits="userSpaceOnUse" color-interpolation-filters="sRGB">
<feFlood flood-opacity="0" result="BackgroundImageFix"/>
<feColorMatrix in="SourceAlpha" type="matrix" values="0 0 0 0 0 0 0 0 0 0 0 0 0 0 0 0 0 0 127 0" result="hardAlpha"/>
<feOffset dy="-4"/>
<feGaussianBlur stdDeviation="18"/>
<feComposite in2="hardAlpha" operator="out"/>
<feColorMatrix type="matrix" values="0 0 0 0 0 0 0 0 0 0 0 0 0 0 0 0 0 0 0.05 0"/>
<feBlend mode="normal" in2="BackgroundImageFix" result="effect1_dropShadow_24_1131"/>
<feBlend mode="normal" in="SourceGraphic" in2="effect1_dropShadow_24_1131" result="shape"/>
</filter>
<linearGradient id="paint0_linear_24_1131" x1="170.308" y1="289.481" x2="145.58" y2="213.532" gradientUnits="userSpaceOnUse">
<stop stop-color="#FB432C"/>
<stop offset="1" stop-color="#FF591E"/>
</linearGradient>
<clipPath id="clip0_24_1131">
<rect x="1" y="1" width="570" height="398" rx="8" fill="white"/>
</clipPath>
</defs>
</svg>
