<svg width="572" height="400" viewBox="0 0 572 400" fill="none" xmlns="http://www.w3.org/2000/svg">
<g clip-path="url(#clip0_24_1108)">
<rect x="1" y="1" width="570" height="398" rx="8" fill="#FCFCFC"/>
<path d="M250.993 70V56.9091H255.902C256.908 56.9091 257.752 57.0966 258.434 57.4716C259.12 57.8466 259.638 58.3622 259.987 59.0185C260.341 59.6705 260.517 60.4119 260.517 61.2429C260.517 62.0824 260.341 62.8281 259.987 63.4801C259.633 64.1321 259.111 64.6456 258.421 65.0206C257.731 65.3913 256.88 65.5767 255.87 65.5767H252.617V63.6271H255.551C256.139 63.6271 256.62 63.5249 256.995 63.3203C257.37 63.1158 257.647 62.8345 257.826 62.4766C258.01 62.1186 258.101 61.7074 258.101 61.2429C258.101 60.7784 258.01 60.3693 257.826 60.0156C257.647 59.6619 257.368 59.3871 256.989 59.1911C256.614 58.9908 256.13 58.8906 255.538 58.8906H253.365V70H250.993ZM262.475 70V60.1818H264.719V61.8182H264.821C265 61.2514 265.307 60.8146 265.741 60.5078C266.18 60.1967 266.681 60.0412 267.244 60.0412C267.371 60.0412 267.514 60.0476 267.672 60.0604C267.834 60.0689 267.968 60.0838 268.074 60.1051V62.2337C267.976 62.1996 267.821 62.1697 267.608 62.1442C267.399 62.1143 267.197 62.0994 267.001 62.0994C266.579 62.0994 266.199 62.1911 265.863 62.3743C265.53 62.5533 265.268 62.8026 265.077 63.1222C264.885 63.4418 264.789 63.8104 264.789 64.228V70H262.475ZM273.49 70.1918C272.531 70.1918 271.7 69.9808 270.997 69.5589C270.294 69.1371 269.749 68.5469 269.361 67.7884C268.977 67.0298 268.786 66.1435 268.786 65.1293C268.786 64.1151 268.977 63.2266 269.361 62.4638C269.749 61.701 270.294 61.1087 270.997 60.6868C271.7 60.2649 272.531 60.054 273.49 60.054C274.449 60.054 275.28 60.2649 275.983 60.6868C276.686 61.1087 277.229 61.701 277.613 62.4638C278.001 63.2266 278.195 64.1151 278.195 65.1293C278.195 66.1435 278.001 67.0298 277.613 67.7884C277.229 68.5469 276.686 69.1371 275.983 69.5589C275.28 69.9808 274.449 70.1918 273.49 70.1918ZM273.503 68.3381C274.023 68.3381 274.457 68.1953 274.807 67.9098C275.156 67.62 275.416 67.2322 275.587 66.7464C275.761 66.2607 275.849 65.7195 275.849 65.1229C275.849 64.522 275.761 63.9787 275.587 63.4929C275.416 63.0028 275.156 62.6129 274.807 62.3232C274.457 62.0334 274.023 61.8885 273.503 61.8885C272.97 61.8885 272.527 62.0334 272.173 62.3232C271.824 62.6129 271.562 63.0028 271.387 63.4929C271.217 63.9787 271.131 64.522 271.131 65.1229C271.131 65.7195 271.217 66.2607 271.387 66.7464C271.562 67.2322 271.824 67.62 272.173 67.9098C272.527 68.1953 272.97 68.3381 273.503 68.3381ZM280.159 60.1818H282.473V70.5625C282.473 71.2699 282.338 71.8537 282.07 72.3139C281.801 72.7741 281.414 73.1172 280.907 73.343C280.399 73.5689 279.784 73.6818 279.059 73.6818C278.974 73.6818 278.895 73.6797 278.823 73.6754C278.75 73.6754 278.671 73.6733 278.586 73.669V71.7834C278.65 71.7876 278.708 71.7898 278.759 71.7898C278.81 71.794 278.863 71.7962 278.919 71.7962C279.362 71.7962 279.679 71.6875 279.871 71.4702C280.063 71.2571 280.159 70.9439 280.159 70.5305V60.1818ZM281.309 58.7884C280.938 58.7884 280.621 58.6669 280.357 58.424C280.097 58.1768 279.967 57.8807 279.967 57.5355C279.967 57.1861 280.097 56.8899 280.357 56.647C280.621 56.3999 280.938 56.2763 281.309 56.2763C281.676 56.2763 281.989 56.3999 282.249 56.647C282.513 56.8899 282.645 57.1861 282.645 57.5355C282.645 57.8807 282.513 58.1768 282.249 58.424C281.989 58.6669 281.676 58.7884 281.309 58.7884ZM289.199 70.1918C288.214 70.1918 287.364 69.9872 286.648 69.5781C285.937 69.1648 285.389 68.581 285.005 67.8267C284.622 67.0682 284.43 66.1754 284.43 65.1484C284.43 64.1385 284.622 63.2521 285.005 62.4893C285.393 61.7223 285.934 61.1257 286.629 60.6996C287.324 60.2692 288.14 60.054 289.077 60.054C289.682 60.054 290.253 60.152 290.79 60.348C291.331 60.5398 291.809 60.8381 292.222 61.2429C292.64 61.6477 292.968 62.1634 293.206 62.7898C293.445 63.4119 293.564 64.1534 293.564 65.0142V65.7237H285.517V64.1641H291.346C291.342 63.7209 291.246 63.3267 291.059 62.9815C290.871 62.6321 290.609 62.3572 290.272 62.157C289.94 61.9567 289.552 61.8565 289.109 61.8565C288.636 61.8565 288.221 61.9716 287.863 62.2017C287.505 62.4276 287.226 62.7259 287.025 63.0966C286.829 63.4631 286.729 63.8658 286.725 64.3047V65.6662C286.725 66.2372 286.829 66.7273 287.038 67.1364C287.247 67.5412 287.539 67.8523 287.914 68.0696C288.289 68.2827 288.728 68.3892 289.231 68.3892C289.567 68.3892 289.872 68.3423 290.145 68.2486C290.417 68.1506 290.654 68.0078 290.854 67.8203C291.054 67.6328 291.206 67.4006 291.308 67.1236L293.468 67.3665C293.332 67.9375 293.072 68.4361 292.689 68.8622C292.309 69.2841 291.824 69.6122 291.231 69.8466C290.639 70.0767 289.961 70.1918 289.199 70.1918ZM299.805 70.1918C298.824 70.1918 297.983 69.9766 297.28 69.5462C296.581 69.1158 296.042 68.5213 295.663 67.7628C295.288 67 295.1 66.1222 295.1 65.1293C295.1 64.1321 295.292 63.2521 295.675 62.4893C296.059 61.7223 296.6 61.1257 297.299 60.6996C298.002 60.2692 298.833 60.054 299.792 60.054C300.589 60.054 301.294 60.201 301.908 60.495C302.525 60.7848 303.018 61.196 303.384 61.7287C303.751 62.2571 303.959 62.875 304.011 63.5824H301.799C301.709 63.1094 301.496 62.7152 301.16 62.3999C300.827 62.0803 300.382 61.9205 299.824 61.9205C299.351 61.9205 298.935 62.0483 298.577 62.304C298.219 62.5554 297.94 62.9176 297.74 63.3906C297.544 63.8636 297.446 64.4304 297.446 65.0909C297.446 65.7599 297.544 66.3352 297.74 66.8168C297.936 67.294 298.211 67.6626 298.565 67.9226C298.922 68.1783 299.342 68.3061 299.824 68.3061C300.165 68.3061 300.469 68.2422 300.738 68.1143C301.011 67.9822 301.239 67.7926 301.422 67.5455C301.605 67.2983 301.731 66.9979 301.799 66.6442H304.011C303.955 67.3388 303.751 67.9545 303.397 68.4915C303.043 69.0241 302.562 69.4418 301.952 69.7443C301.343 70.0426 300.627 70.1918 299.805 70.1918ZM310.813 60.1818V61.9716H305.169V60.1818H310.813ZM306.563 57.8295H308.877V67.0469C308.877 67.358 308.923 67.5966 309.017 67.7628C309.115 67.9247 309.243 68.0355 309.401 68.0952C309.558 68.1548 309.733 68.1847 309.925 68.1847C310.07 68.1847 310.202 68.174 310.321 68.1527C310.445 68.1314 310.538 68.1122 310.602 68.0952L310.992 69.9041C310.869 69.9467 310.692 69.9936 310.462 70.0447C310.236 70.0959 309.959 70.1257 309.631 70.1342C309.051 70.1513 308.529 70.0639 308.065 69.8722C307.6 69.6761 307.232 69.3736 306.959 68.9645C306.69 68.5554 306.558 68.044 306.563 67.4304V57.8295ZM320.368 62.777L318.258 63.0071C318.199 62.794 318.094 62.5938 317.945 62.4062C317.8 62.2188 317.604 62.0675 317.357 61.9524C317.11 61.8374 316.807 61.7798 316.449 61.7798C315.968 61.7798 315.563 61.8842 315.235 62.093C314.911 62.3018 314.751 62.5724 314.756 62.9048C314.751 63.1903 314.856 63.4226 315.069 63.6016C315.286 63.7805 315.644 63.9276 316.143 64.0426L317.817 64.4006C318.746 64.6009 319.437 64.9183 319.888 65.353C320.344 65.7876 320.574 66.3565 320.579 67.0597C320.574 67.6776 320.393 68.223 320.035 68.696C319.682 69.1648 319.19 69.5312 318.559 69.7955C317.928 70.0597 317.204 70.1918 316.386 70.1918C315.184 70.1918 314.217 69.9403 313.484 69.4375C312.751 68.9304 312.314 68.2251 312.173 67.3217L314.43 67.1044C314.532 67.5476 314.749 67.8821 315.082 68.108C315.414 68.3338 315.847 68.4467 316.379 68.4467C316.929 68.4467 317.37 68.3338 317.702 68.108C318.039 67.8821 318.207 67.603 318.207 67.2706C318.207 66.9893 318.099 66.7571 317.881 66.5739C317.668 66.3906 317.336 66.25 316.884 66.152L315.209 65.8004C314.268 65.6044 313.571 65.2741 313.119 64.8097C312.668 64.3409 312.444 63.7486 312.448 63.0327C312.444 62.4276 312.608 61.9034 312.94 61.4602C313.277 61.0128 313.744 60.6676 314.34 60.4247C314.941 60.1776 315.633 60.054 316.418 60.054C317.568 60.054 318.474 60.299 319.134 60.7891C319.799 61.2791 320.21 61.9418 320.368 62.777Z" fill="#171717"/>
<path d="M173.757 91.4545C173.757 92.8352 173.507 94.0284 173.009 95.0341C172.51 96.0398 171.826 96.8153 170.957 97.3608C170.088 97.9062 169.095 98.179 167.978 98.179C166.862 98.179 165.869 97.9062 165 97.3608C164.13 96.8153 163.446 96.0398 162.948 95.0341C162.449 94.0284 162.2 92.8352 162.2 91.4545C162.2 90.0739 162.449 88.8807 162.948 87.875C163.446 86.8693 164.13 86.0938 165 85.5483C165.869 85.0028 166.862 84.7301 167.978 84.7301C169.095 84.7301 170.088 85.0028 170.957 85.5483C171.826 86.0938 172.51 86.8693 173.009 87.875C173.507 88.8807 173.757 90.0739 173.757 91.4545ZM172.223 91.4545C172.223 90.321 172.033 89.3643 171.654 88.5845C171.279 87.8047 170.769 87.2145 170.126 86.8139C169.487 86.4134 168.771 86.2131 167.978 86.2131C167.186 86.2131 166.468 86.4134 165.824 86.8139C165.185 87.2145 164.676 87.8047 164.296 88.5845C163.921 89.3643 163.734 90.321 163.734 91.4545C163.734 92.5881 163.921 93.5447 164.296 94.3246C164.676 95.1044 165.185 95.6946 165.824 96.0952C166.468 96.4957 167.186 96.696 167.978 96.696C168.771 96.696 169.487 96.4957 170.126 96.0952C170.769 95.6946 171.279 95.1044 171.654 94.3246C172.033 93.5447 172.223 92.5881 172.223 91.4545ZM176.218 98V88.1818H177.675V89.6648H177.777C177.956 89.179 178.28 88.7848 178.749 88.4822C179.218 88.1797 179.746 88.0284 180.334 88.0284C180.445 88.0284 180.583 88.0305 180.75 88.0348C180.916 88.0391 181.041 88.0455 181.127 88.054V89.5881C181.076 89.5753 180.958 89.5561 180.775 89.5305C180.596 89.5007 180.407 89.4858 180.206 89.4858C179.729 89.4858 179.303 89.5859 178.928 89.7862C178.557 89.9822 178.263 90.255 178.046 90.6044C177.833 90.9496 177.726 91.3437 177.726 91.7869V98H176.218ZM186.579 101.886C185.85 101.886 185.224 101.793 184.7 101.605C184.176 101.422 183.739 101.179 183.389 100.876C183.044 100.578 182.769 100.259 182.565 99.9176L183.767 99.0739C183.903 99.2528 184.076 99.4574 184.284 99.6875C184.493 99.9219 184.779 100.124 185.141 100.295C185.507 100.469 185.987 100.557 186.579 100.557C187.372 100.557 188.026 100.365 188.541 99.9815C189.057 99.598 189.315 98.9972 189.315 98.179V96.1847H189.187C189.076 96.3636 188.919 96.5852 188.714 96.8494C188.514 97.1094 188.224 97.3416 187.845 97.5462C187.47 97.7464 186.963 97.8466 186.323 97.8466C185.531 97.8466 184.819 97.6591 184.188 97.2841C183.562 96.9091 183.066 96.3636 182.699 95.6477C182.337 94.9318 182.156 94.0625 182.156 93.0398C182.156 92.0341 182.333 91.1584 182.686 90.4126C183.04 89.6626 183.532 89.0831 184.163 88.674C184.794 88.2607 185.522 88.054 186.349 88.054C186.988 88.054 187.495 88.1605 187.87 88.3736C188.25 88.5824 188.539 88.821 188.74 89.0895C188.944 89.3537 189.102 89.571 189.213 89.7415H189.366V88.1818H190.823V98.2812C190.823 99.125 190.632 99.8111 190.248 100.339C189.869 100.872 189.358 101.262 188.714 101.509C188.075 101.761 187.363 101.886 186.579 101.886ZM186.528 96.4915C187.133 96.4915 187.644 96.353 188.062 96.076C188.48 95.799 188.797 95.4006 189.014 94.8807C189.232 94.3608 189.34 93.7386 189.34 93.0142C189.34 92.3068 189.234 91.6825 189.021 91.1413C188.808 90.6001 188.492 90.1761 188.075 89.8693C187.657 89.5625 187.142 89.4091 186.528 89.4091C185.889 89.4091 185.356 89.571 184.93 89.8949C184.508 90.2187 184.191 90.6534 183.978 91.1989C183.769 91.7443 183.664 92.3494 183.664 93.0142C183.664 93.696 183.771 94.299 183.984 94.8232C184.201 95.343 184.521 95.7521 184.943 96.0504C185.369 96.3445 185.897 96.4915 186.528 96.4915ZM196.474 98.2301C195.852 98.2301 195.287 98.1129 194.78 97.8786C194.273 97.6399 193.87 97.2969 193.572 96.8494C193.274 96.3977 193.125 95.8523 193.125 95.2131C193.125 94.6506 193.235 94.1946 193.457 93.8452C193.679 93.4915 193.975 93.2145 194.345 93.0142C194.716 92.8139 195.125 92.6648 195.573 92.5668C196.024 92.4645 196.478 92.3835 196.934 92.3239C197.531 92.2472 198.014 92.1896 198.385 92.1513C198.76 92.1087 199.033 92.0384 199.203 91.9403C199.378 91.8423 199.465 91.6719 199.465 91.429V91.3778C199.465 90.7472 199.293 90.2571 198.948 89.9077C198.607 89.5582 198.089 89.3835 197.394 89.3835C196.674 89.3835 196.11 89.5412 195.701 89.8565C195.291 90.1719 195.004 90.5085 194.838 90.8665L193.406 90.3551C193.661 89.7585 194.002 89.294 194.429 88.9616C194.859 88.625 195.328 88.3906 195.835 88.2585C196.346 88.1222 196.849 88.054 197.343 88.054C197.659 88.054 198.021 88.0923 198.43 88.169C198.843 88.2415 199.242 88.3928 199.625 88.6229C200.013 88.853 200.335 89.2003 200.59 89.6648C200.846 90.1293 200.974 90.7514 200.974 91.5312V98H199.465V96.6705H199.389C199.286 96.8835 199.116 97.1115 198.877 97.3544C198.639 97.5973 198.321 97.804 197.925 97.9744C197.529 98.1449 197.045 98.2301 196.474 98.2301ZM196.704 96.875C197.301 96.875 197.804 96.7578 198.213 96.5234C198.626 96.2891 198.937 95.9865 199.146 95.6158C199.359 95.245 199.465 94.8551 199.465 94.446V93.0653C199.402 93.142 199.261 93.2124 199.044 93.2763C198.831 93.3359 198.583 93.3892 198.302 93.4361C198.025 93.4787 197.755 93.517 197.49 93.5511C197.23 93.581 197.019 93.6065 196.858 93.6278C196.465 93.679 196.099 93.7621 195.758 93.8771C195.421 93.9879 195.149 94.1562 194.94 94.3821C194.735 94.6037 194.633 94.9062 194.633 95.2898C194.633 95.8139 194.827 96.2102 195.215 96.4787C195.607 96.7429 196.103 96.875 196.704 96.875ZM205.236 92.0938V98H203.727V88.1818H205.185V89.7159H205.313C205.543 89.2173 205.892 88.8168 206.361 88.5142C206.83 88.2074 207.435 88.054 208.176 88.054C208.841 88.054 209.423 88.1903 209.921 88.4631C210.42 88.7315 210.808 89.1406 211.085 89.6903C211.362 90.2358 211.5 90.9261 211.5 91.7614V98H209.992V91.8636C209.992 91.0923 209.791 90.4915 209.391 90.0611C208.99 89.6264 208.44 89.4091 207.742 89.4091C207.26 89.4091 206.83 89.5135 206.45 89.7223C206.075 89.9311 205.779 90.2358 205.562 90.6364C205.345 91.0369 205.236 91.5227 205.236 92.0938ZM214.257 98V88.1818H215.765V98H214.257ZM215.024 86.5455C214.73 86.5455 214.476 86.4453 214.263 86.245C214.054 86.0447 213.95 85.804 213.95 85.5227C213.95 85.2415 214.054 85.0007 214.263 84.8004C214.476 84.6001 214.73 84.5 215.024 84.5C215.318 84.5 215.569 84.6001 215.778 84.8004C215.991 85.0007 216.098 85.2415 216.098 85.5227C216.098 85.804 215.991 86.0447 215.778 86.245C215.569 86.4453 215.318 86.5455 215.024 86.5455ZM218.247 98V96.8494L223.821 89.6903V89.5881H218.426V88.1818H225.764V89.3835L220.343 96.4915V96.5938H225.943V98H218.247ZM232.102 98.2045C231.156 98.2045 230.34 97.9957 229.653 97.5781C228.972 97.1562 228.445 96.5682 228.075 95.8139C227.708 95.0554 227.525 94.1733 227.525 93.1676C227.525 92.1619 227.708 91.2756 228.075 90.5085C228.445 89.7372 228.961 89.1364 229.622 88.706C230.286 88.2713 231.062 88.054 231.948 88.054C232.46 88.054 232.965 88.1392 233.463 88.3097C233.962 88.4801 234.416 88.7571 234.825 89.1406C235.234 89.5199 235.56 90.0227 235.803 90.6491C236.046 91.2756 236.167 92.0469 236.167 92.9631V93.6023H228.599V92.2983H234.633C234.633 91.7443 234.522 91.25 234.301 90.8153C234.083 90.3807 233.772 90.0376 233.367 89.7862C232.967 89.5348 232.494 89.4091 231.948 89.4091C231.347 89.4091 230.828 89.5582 230.389 89.8565C229.954 90.1506 229.619 90.5341 229.385 91.0071C229.151 91.4801 229.033 91.9872 229.033 92.5284V93.3977C229.033 94.1392 229.161 94.7678 229.417 95.2834C229.677 95.7947 230.037 96.1847 230.497 96.4531C230.957 96.7173 231.492 96.8494 232.102 96.8494C232.498 96.8494 232.856 96.794 233.176 96.6832C233.499 96.5682 233.778 96.3977 234.013 96.1719C234.247 95.9418 234.428 95.6562 234.556 95.3153L236.014 95.7244C235.86 96.2188 235.602 96.6534 235.24 97.0284C234.878 97.3991 234.43 97.6889 233.898 97.8977C233.365 98.1023 232.766 98.2045 232.102 98.2045ZM240.712 96.2102L240.609 96.9006C240.537 97.3864 240.426 97.9062 240.277 98.4602C240.132 99.0142 239.981 99.5362 239.823 100.026C239.666 100.516 239.536 100.906 239.433 101.196H238.283C238.338 100.923 238.411 100.563 238.5 100.116C238.59 99.6683 238.679 99.1676 238.769 98.6136C238.862 98.0639 238.939 97.5014 238.999 96.9261L239.075 96.2102H240.712ZM252.941 88.1818V89.4602H247.649V88.1818H252.941ZM249.234 98V86.8267C249.234 86.2642 249.366 85.7955 249.63 85.4205C249.894 85.0455 250.237 84.7642 250.659 84.5767C251.081 84.3892 251.527 84.2955 251.995 84.2955C252.366 84.2955 252.669 84.3253 252.903 84.3849C253.137 84.4446 253.312 84.5 253.427 84.5511L252.992 85.8551C252.916 85.8295 252.809 85.7976 252.673 85.7592C252.541 85.7209 252.366 85.7017 252.149 85.7017C251.65 85.7017 251.29 85.8274 251.068 86.0788C250.851 86.3303 250.742 86.6989 250.742 87.1847V98H249.234ZM258.64 98.2045C257.753 98.2045 256.976 97.9936 256.307 97.5717C255.642 97.1499 255.122 96.5597 254.747 95.8011C254.376 95.0426 254.191 94.1562 254.191 93.142C254.191 92.1193 254.376 91.2266 254.747 90.4638C255.122 89.701 255.642 89.1087 256.307 88.6868C256.976 88.2649 257.753 88.054 258.64 88.054C259.526 88.054 260.302 88.2649 260.967 88.6868C261.636 89.1087 262.155 89.701 262.526 90.4638C262.901 91.2266 263.089 92.1193 263.089 93.142C263.089 94.1562 262.901 95.0426 262.526 95.8011C262.155 96.5597 261.636 97.1499 260.967 97.5717C260.302 97.9936 259.526 98.2045 258.64 98.2045ZM258.64 96.8494C259.313 96.8494 259.867 96.6768 260.302 96.3317C260.736 95.9865 261.058 95.5327 261.267 94.9702C261.476 94.4077 261.58 93.7983 261.58 93.142C261.58 92.4858 261.476 91.8743 261.267 91.3075C261.058 90.7408 260.736 90.2827 260.302 89.9332C259.867 89.5838 259.313 89.4091 258.64 89.4091C257.967 89.4091 257.413 89.5838 256.978 89.9332C256.543 90.2827 256.222 90.7408 256.013 91.3075C255.804 91.8743 255.699 92.4858 255.699 93.142C255.699 93.7983 255.804 94.4077 256.013 94.9702C256.222 95.5327 256.543 95.9865 256.978 96.3317C257.413 96.6768 257.967 96.8494 258.64 96.8494ZM266.9 84.9091V98H265.391V84.9091H266.9ZM271.171 84.9091V98H269.663V84.9091H271.171ZM277.923 98.2045C277.037 98.2045 276.259 97.9936 275.59 97.5717C274.925 97.1499 274.405 96.5597 274.03 95.8011C273.66 95.0426 273.474 94.1562 273.474 93.142C273.474 92.1193 273.66 91.2266 274.03 90.4638C274.405 89.701 274.925 89.1087 275.59 88.6868C276.259 88.2649 277.037 88.054 277.923 88.054C278.809 88.054 279.585 88.2649 280.25 88.6868C280.919 89.1087 281.439 89.701 281.809 90.4638C282.184 91.2266 282.372 92.1193 282.372 93.142C282.372 94.1562 282.184 95.0426 281.809 95.8011C281.439 96.5597 280.919 97.1499 280.25 97.5717C279.585 97.9936 278.809 98.2045 277.923 98.2045ZM277.923 96.8494C278.596 96.8494 279.15 96.6768 279.585 96.3317C280.02 95.9865 280.341 95.5327 280.55 94.9702C280.759 94.4077 280.863 93.7983 280.863 93.142C280.863 92.4858 280.759 91.8743 280.55 91.3075C280.341 90.7408 280.02 90.2827 279.585 89.9332C279.15 89.5838 278.596 89.4091 277.923 89.4091C277.25 89.4091 276.696 89.5838 276.261 89.9332C275.826 90.2827 275.505 90.7408 275.296 91.3075C275.087 91.8743 274.983 92.4858 274.983 93.142C274.983 93.7983 275.087 94.4077 275.296 94.9702C275.505 95.5327 275.826 95.9865 276.261 96.3317C276.696 96.6768 277.25 96.8494 277.923 96.8494ZM286.565 98L283.574 88.1818H285.159L287.281 95.6989H287.383L289.48 88.1818H291.091L293.162 95.6733H293.264L295.386 88.1818H296.971L293.98 98H292.497L290.349 90.4574H290.196L288.048 98H286.565ZM299.88 96.2102L299.777 96.9006C299.705 97.3864 299.594 97.9062 299.445 98.4602C299.3 99.0142 299.149 99.5362 298.991 100.026C298.834 100.516 298.704 100.906 298.601 101.196H297.451C297.506 100.923 297.579 100.563 297.668 100.116C297.758 99.6683 297.847 99.1676 297.937 98.6136C298.03 98.0639 298.107 97.5014 298.167 96.9261L298.243 96.2102H299.88ZM310.626 98.2301C310.004 98.2301 309.44 98.1129 308.932 97.8786C308.425 97.6399 308.023 97.2969 307.724 96.8494C307.426 96.3977 307.277 95.8523 307.277 95.2131C307.277 94.6506 307.388 94.1946 307.609 93.8452C307.831 93.4915 308.127 93.2145 308.498 93.0142C308.869 92.8139 309.278 92.6648 309.725 92.5668C310.177 92.4645 310.631 92.3835 311.087 92.3239C311.683 92.2472 312.167 92.1896 312.538 92.1513C312.913 92.1087 313.185 92.0384 313.356 91.9403C313.53 91.8423 313.618 91.6719 313.618 91.429V91.3778C313.618 90.7472 313.445 90.2571 313.1 89.9077C312.759 89.5582 312.241 89.3835 311.547 89.3835C310.827 89.3835 310.262 89.5412 309.853 89.8565C309.444 90.1719 309.156 90.5085 308.99 90.8665L307.558 90.3551C307.814 89.7585 308.155 89.294 308.581 88.9616C309.011 88.625 309.48 88.3906 309.987 88.2585C310.498 88.1222 311.001 88.054 311.496 88.054C311.811 88.054 312.173 88.0923 312.582 88.169C312.996 88.2415 313.394 88.3928 313.778 88.6229C314.165 88.853 314.487 89.2003 314.743 89.6648C314.998 90.1293 315.126 90.7514 315.126 91.5312V98H313.618V96.6705H313.541C313.439 96.8835 313.268 97.1115 313.03 97.3544C312.791 97.5973 312.474 97.804 312.077 97.9744C311.681 98.1449 311.197 98.2301 310.626 98.2301ZM310.856 96.875C311.453 96.875 311.956 96.7578 312.365 96.5234C312.778 96.2891 313.089 95.9865 313.298 95.6158C313.511 95.245 313.618 94.8551 313.618 94.446V93.0653C313.554 93.142 313.413 93.2124 313.196 93.2763C312.983 93.3359 312.736 93.3892 312.454 93.4361C312.177 93.4787 311.907 93.517 311.643 93.5511C311.383 93.581 311.172 93.6065 311.01 93.6278C310.618 93.679 310.251 93.7621 309.91 93.8771C309.574 93.9879 309.301 94.1562 309.092 94.3821C308.888 94.6037 308.785 94.9062 308.785 95.2898C308.785 95.8139 308.979 96.2102 309.367 96.4787C309.759 96.7429 310.256 96.875 310.856 96.875ZM319.388 92.0938V98H317.88V88.1818H319.337V89.7159H319.465C319.695 89.2173 320.044 88.8168 320.513 88.5142C320.982 88.2074 321.587 88.054 322.329 88.054C322.993 88.054 323.575 88.1903 324.074 88.4631C324.572 88.7315 324.96 89.1406 325.237 89.6903C325.514 90.2358 325.652 90.9261 325.652 91.7614V98H324.144V91.8636C324.144 91.0923 323.944 90.4915 323.543 90.0611C323.142 89.6264 322.593 89.4091 321.894 89.4091C321.412 89.4091 320.982 89.5135 320.603 89.7223C320.228 89.9311 319.932 90.2358 319.714 90.6364C319.497 91.0369 319.388 91.5227 319.388 92.0938ZM332.116 98.2045C331.298 98.2045 330.576 97.9979 329.949 97.5845C329.323 97.1669 328.833 96.5788 328.479 95.8203C328.126 95.0575 327.949 94.1562 327.949 93.1165C327.949 92.0852 328.126 91.1903 328.479 90.4318C328.833 89.6733 329.325 89.0874 329.956 88.674C330.587 88.2607 331.315 88.054 332.142 88.054C332.781 88.054 333.286 88.1605 333.657 88.3736C334.032 88.5824 334.317 88.821 334.513 89.0895C334.714 89.3537 334.869 89.571 334.98 89.7415H335.108V84.9091H336.616V98H335.159V96.4915H334.98C334.869 96.6705 334.712 96.8963 334.507 97.169C334.302 97.4375 334.011 97.6783 333.631 97.8913C333.252 98.1001 332.747 98.2045 332.116 98.2045ZM332.321 96.8494C332.926 96.8494 333.437 96.6918 333.855 96.3764C334.273 96.0568 334.59 95.6158 334.807 95.0533C335.025 94.4865 335.133 93.8324 335.133 93.0909C335.133 92.358 335.027 91.7166 334.814 91.1669C334.601 90.6129 334.285 90.1825 333.868 89.8757C333.45 89.5646 332.935 89.4091 332.321 89.4091C331.682 89.4091 331.149 89.5732 330.723 89.9013C330.301 90.2251 329.984 90.6662 329.771 91.2244C329.562 91.7784 329.457 92.4006 329.457 93.0909C329.457 93.7898 329.564 94.4247 329.777 94.9957C329.994 95.5625 330.314 96.0142 330.736 96.3509C331.162 96.6832 331.69 96.8494 332.321 96.8494ZM347.54 98.2301C346.918 98.2301 346.354 98.1129 345.847 97.8786C345.339 97.6399 344.937 97.2969 344.638 96.8494C344.34 96.3977 344.191 95.8523 344.191 95.2131C344.191 94.6506 344.302 94.1946 344.523 93.8452C344.745 93.4915 345.041 93.2145 345.412 93.0142C345.783 92.8139 346.192 92.6648 346.639 92.5668C347.091 92.4645 347.545 92.3835 348.001 92.3239C348.597 92.2472 349.081 92.1896 349.452 92.1513C349.827 92.1087 350.099 92.0384 350.27 91.9403C350.445 91.8423 350.532 91.6719 350.532 91.429V91.3778C350.532 90.7472 350.359 90.2571 350.014 89.9077C349.673 89.5582 349.155 89.3835 348.461 89.3835C347.741 89.3835 347.176 89.5412 346.767 89.8565C346.358 90.1719 346.07 90.5085 345.904 90.8665L344.472 90.3551C344.728 89.7585 345.069 89.294 345.495 88.9616C345.925 88.625 346.394 88.3906 346.901 88.2585C347.413 88.1222 347.915 88.054 348.41 88.054C348.725 88.054 349.087 88.0923 349.496 88.169C349.91 88.2415 350.308 88.3928 350.692 88.6229C351.079 88.853 351.401 89.2003 351.657 89.6648C351.913 90.1293 352.04 90.7514 352.04 91.5312V98H350.532V96.6705H350.455C350.353 96.8835 350.182 97.1115 349.944 97.3544C349.705 97.5973 349.388 97.804 348.991 97.9744C348.595 98.1449 348.111 98.2301 347.54 98.2301ZM347.771 96.875C348.367 96.875 348.87 96.7578 349.279 96.5234C349.692 96.2891 350.003 95.9865 350.212 95.6158C350.425 95.245 350.532 94.8551 350.532 94.446V93.0653C350.468 93.142 350.327 93.2124 350.11 93.2763C349.897 93.3359 349.65 93.3892 349.369 93.4361C349.092 93.4787 348.821 93.517 348.557 93.5511C348.297 93.581 348.086 93.6065 347.924 93.6278C347.532 93.679 347.165 93.7621 346.824 93.8771C346.488 93.9879 346.215 94.1562 346.006 94.3821C345.802 94.6037 345.699 94.9062 345.699 95.2898C345.699 95.8139 345.893 96.2102 346.281 96.4787C346.673 96.7429 347.17 96.875 347.771 96.875ZM354.794 98V88.1818H356.251V89.6648H356.353C356.532 89.179 356.856 88.7848 357.325 88.4822C357.794 88.1797 358.322 88.0284 358.91 88.0284C359.021 88.0284 359.16 88.0305 359.326 88.0348C359.492 88.0391 359.618 88.0455 359.703 88.054V89.5881C359.652 89.5753 359.535 89.5561 359.351 89.5305C359.172 89.5007 358.983 89.4858 358.782 89.4858C358.305 89.4858 357.879 89.5859 357.504 89.7862C357.133 89.9822 356.839 90.255 356.622 90.6044C356.409 90.9496 356.302 91.3437 356.302 91.7869V98H354.794ZM365.181 98.2045C364.26 98.2045 363.468 97.9872 362.803 97.5526C362.138 97.1179 361.627 96.5192 361.269 95.7564C360.911 94.9936 360.732 94.1222 360.732 93.142C360.732 92.1449 360.915 91.2649 361.282 90.5021C361.652 89.7351 362.168 89.1364 362.829 88.706C363.493 88.2713 364.269 88.054 365.155 88.054C365.846 88.054 366.468 88.1818 367.022 88.4375C367.576 88.6932 368.03 89.0511 368.383 89.5114C368.737 89.9716 368.956 90.5085 369.042 91.1222H367.533C367.418 90.6747 367.162 90.2784 366.766 89.9332C366.374 89.5838 365.846 89.4091 365.181 89.4091C364.593 89.4091 364.077 89.5625 363.634 89.8693C363.195 90.1719 362.852 90.6001 362.605 91.1541C362.362 91.7038 362.241 92.3494 362.241 93.0909C362.241 93.8494 362.36 94.5099 362.598 95.0724C362.841 95.6349 363.182 96.0717 363.621 96.3828C364.064 96.6939 364.584 96.8494 365.181 96.8494C365.573 96.8494 365.929 96.7812 366.248 96.6449C366.568 96.5085 366.839 96.3125 367.06 96.0568C367.282 95.8011 367.439 95.4943 367.533 95.1364H369.042C368.956 95.7159 368.745 96.2379 368.409 96.7024C368.076 97.1626 367.635 97.5291 367.086 97.8018C366.54 98.0703 365.905 98.2045 365.181 98.2045ZM372.755 92.0938V98H371.247V84.9091H372.755V89.7159H372.883C373.113 89.2088 373.459 88.8061 373.919 88.5078C374.383 88.2053 375.001 88.054 375.772 88.054C376.441 88.054 377.027 88.1882 377.53 88.4567C378.033 88.7209 378.423 89.1278 378.7 89.6776C378.981 90.223 379.122 90.9176 379.122 91.7614V98H377.613V91.8636C377.613 91.0838 377.411 90.4808 377.006 90.0547C376.606 89.6243 376.049 89.4091 375.338 89.4091C374.843 89.4091 374.4 89.5135 374.008 89.7223C373.62 89.9311 373.314 90.2358 373.088 90.6364C372.866 91.0369 372.755 91.5227 372.755 92.0938ZM381.882 98V88.1818H383.39V98H381.882ZM382.649 86.5455C382.355 86.5455 382.101 86.4453 381.888 86.245C381.679 86.0447 381.575 85.804 381.575 85.5227C381.575 85.2415 381.679 85.0007 381.888 84.8004C382.101 84.6001 382.355 84.5 382.649 84.5C382.943 84.5 383.194 84.6001 383.403 84.8004C383.616 85.0007 383.723 85.2415 383.723 85.5227C383.723 85.804 383.616 86.0447 383.403 86.245C383.194 86.4453 382.943 86.5455 382.649 86.5455ZM394.182 88.1818L390.551 98H389.017L385.386 88.1818H387.022L389.733 96.0057H389.835L392.545 88.1818H394.182ZM399.938 98.2045C398.992 98.2045 398.176 97.9957 397.489 97.5781C396.808 97.1562 396.281 96.5682 395.911 95.8139C395.544 95.0554 395.361 94.1733 395.361 93.1676C395.361 92.1619 395.544 91.2756 395.911 90.5085C396.281 89.7372 396.797 89.1364 397.457 88.706C398.122 88.2713 398.898 88.054 399.784 88.054C400.296 88.054 400.801 88.1392 401.299 88.3097C401.798 88.4801 402.252 88.7571 402.661 89.1406C403.07 89.5199 403.396 90.0227 403.639 90.6491C403.881 91.2756 404.003 92.0469 404.003 92.9631V93.6023H396.435V92.2983H402.469C402.469 91.7443 402.358 91.25 402.136 90.8153C401.919 90.3807 401.608 90.0376 401.203 89.7862C400.803 89.5348 400.33 89.4091 399.784 89.4091C399.183 89.4091 398.663 89.5582 398.225 89.8565C397.79 90.1506 397.455 90.5341 397.221 91.0071C396.987 91.4801 396.869 91.9872 396.869 92.5284V93.3977C396.869 94.1392 396.997 94.7678 397.253 95.2834C397.513 95.7947 397.873 96.1847 398.333 96.4531C398.793 96.7173 399.328 96.8494 399.938 96.8494C400.334 96.8494 400.692 96.794 401.011 96.6832C401.335 96.5682 401.614 96.3977 401.849 96.1719C402.083 95.9418 402.264 95.6562 402.392 95.3153L403.85 95.7244C403.696 96.2188 403.438 96.6534 403.076 97.0284C402.714 97.3991 402.266 97.6889 401.734 97.8977C401.201 98.1023 400.602 98.2045 399.938 98.2045ZM407.397 98.1023C407.082 98.1023 406.811 97.9893 406.585 97.7635C406.359 97.5376 406.247 97.267 406.247 96.9517C406.247 96.6364 406.359 96.3658 406.585 96.1399C406.811 95.9141 407.082 95.8011 407.397 95.8011C407.712 95.8011 407.983 95.9141 408.209 96.1399C408.435 96.3658 408.548 96.6364 408.548 96.9517C408.548 97.1605 408.494 97.3523 408.388 97.527C408.286 97.7017 408.147 97.8423 407.972 97.9489C407.802 98.0511 407.61 98.1023 407.397 98.1023Z" fill="#525252"/>
<g filter="url(#filter0_d_24_1108)">
<rect x="67" y="148" width="437" height="319" rx="14" fill="white"/>
</g>
<path d="M107.484 278V267.092H105.81V265.22H109.554V278H107.484ZM114.785 265.382C115.409 265.046 116.165 264.878 117.053 264.878C117.941 264.878 118.697 265.046 119.321 265.382C119.945 265.706 120.425 266.174 120.761 266.786C121.109 267.398 121.355 268.082 121.499 268.838C121.655 269.582 121.733 270.44 121.733 271.412C121.733 272.384 121.655 273.248 121.499 274.004C121.355 274.748 121.109 275.432 120.761 276.056C120.425 276.668 119.945 277.142 119.321 277.478C118.697 277.802 117.941 277.964 117.053 277.964C116.165 277.964 115.409 277.802 114.785 277.478C114.161 277.142 113.675 276.668 113.327 276.056C112.991 275.432 112.745 274.748 112.589 274.004C112.445 273.248 112.373 272.384 112.373 271.412C112.373 270.44 112.445 269.582 112.589 268.838C112.745 268.082 112.991 267.398 113.327 266.786C113.675 266.174 114.161 265.706 114.785 265.382ZM117.053 266.75C116.477 266.75 116.003 266.876 115.631 267.128C115.259 267.368 114.989 267.728 114.821 268.208C114.533 269.036 114.389 270.104 114.389 271.412C114.389 272.732 114.533 273.806 114.821 274.634C115.157 275.606 115.901 276.092 117.053 276.092C118.205 276.092 118.949 275.606 119.285 274.634C119.573 273.806 119.717 272.732 119.717 271.412C119.717 270.104 119.573 269.036 119.285 268.208C118.949 267.236 118.205 266.75 117.053 266.75ZM126.226 278H124.174V264.68H126.226V272.42L129.826 268.082H132.67L128.098 273.05L132.67 278H129.898L126.226 273.734V278Z" fill="#383838"/>
<path d="M113.478 330.698C113.478 329.894 113.262 329.252 112.83 328.772C112.41 328.28 111.81 328.034 111.03 328.034C110.25 328.034 109.602 328.256 109.086 328.7C108.582 329.132 108.33 329.762 108.33 330.59C108.33 331.418 108.564 332.078 109.032 332.57C109.512 333.05 110.154 333.29 110.958 333.29C111.762 333.29 112.38 333.056 112.812 332.588C113.256 332.12 113.478 331.49 113.478 330.698ZM110.958 323.264C110.01 323.264 109.302 323.63 108.834 324.362C108.366 325.082 108.12 326.282 108.096 327.962C108.408 327.434 108.864 327.026 109.464 326.738C110.064 326.45 110.712 326.306 111.408 326.306C112.608 326.306 113.58 326.69 114.324 327.458C115.068 328.226 115.44 329.27 115.44 330.59C115.44 331.898 115.062 332.96 114.306 333.776C113.55 334.592 112.494 335 111.138 335C109.278 335 108 334.376 107.304 333.128C106.944 332.504 106.692 331.796 106.548 331.004C106.404 330.2 106.332 329.246 106.332 328.142C106.332 323.75 107.88 321.554 110.976 321.554C112.176 321.554 113.118 321.878 113.802 322.526C114.498 323.174 114.906 323.972 115.026 324.92H113.136C112.872 323.816 112.146 323.264 110.958 323.264ZM119.951 335H117.899V321.68H119.951V329.42L123.551 325.082H126.395L121.823 330.05L126.395 335H123.623L119.951 330.734V335Z" fill="#383838"/>
<path d="M106.62 378.842H114.54V380.642H108.51V384.224C108.762 383.888 109.134 383.606 109.626 383.378C110.13 383.15 110.712 383.036 111.372 383.036C112.044 383.036 112.662 383.168 113.226 383.432C113.802 383.696 114.24 384.05 114.54 384.494C115.14 385.358 115.44 386.33 115.44 387.41C115.44 388.778 115.05 389.888 114.27 390.74C113.49 391.58 112.404 392 111.012 392C109.632 392 108.546 391.676 107.754 391.028C106.962 390.38 106.488 389.522 106.332 388.454H108.33C108.462 389.018 108.756 389.468 109.212 389.804C109.668 390.128 110.28 390.29 111.048 390.29C111.816 390.29 112.41 390.032 112.83 389.516C113.262 389 113.478 388.316 113.478 387.464C113.478 386.6 113.262 385.94 112.83 385.484C112.398 385.016 111.762 384.782 110.922 384.782C110.334 384.782 109.836 384.932 109.428 385.232C109.032 385.52 108.744 385.916 108.564 386.42H106.62V378.842ZM119.898 392H117.846V378.68H119.898V386.42L123.498 382.082H126.342L121.77 387.05L126.342 392H123.57L119.898 387.734V392Z" fill="#383838"/>
<path d="M102.624 199.888C104.164 199.888 105.418 199.382 106.386 198.37C107.369 197.343 107.86 196.001 107.86 194.344C107.86 192.672 107.369 191.33 106.386 190.318C105.418 189.306 104.164 188.8 102.624 188.8C101.084 188.8 99.8227 189.306 98.84 190.318C97.872 191.33 97.388 192.672 97.388 194.344C97.388 196.001 97.872 197.343 98.84 198.37C99.8227 199.382 101.084 199.888 102.624 199.888ZM102.624 202.154C100.439 202.154 98.5907 201.421 97.08 199.954C95.5693 198.473 94.814 196.603 94.814 194.344C94.814 192.071 95.5693 190.201 97.08 188.734C98.5907 187.253 100.439 186.512 102.624 186.512C104.824 186.512 106.672 187.253 108.168 188.734C109.679 190.201 110.434 192.071 110.434 194.344C110.434 196.603 109.679 198.473 108.168 199.954C106.672 201.421 104.824 202.154 102.624 202.154ZM111.472 189.878H114.156L117.588 199.756L121.02 189.878H123.726L119.106 202H116.07L111.472 189.878ZM130.682 202.198C128.922 202.198 127.492 201.626 126.392 200.482C125.292 199.338 124.742 197.82 124.742 195.928C124.742 194.036 125.299 192.525 126.414 191.396C127.528 190.252 128.966 189.68 130.726 189.68C132.5 189.68 133.938 190.23 135.038 191.33C136.138 192.415 136.688 193.838 136.688 195.598C136.688 196.023 136.658 196.419 136.6 196.786H127.316C127.374 197.798 127.712 198.605 128.328 199.206C128.958 199.793 129.743 200.086 130.682 200.086C132.046 200.086 133.006 199.521 133.564 198.392H136.27C135.903 199.507 135.236 200.423 134.268 201.142C133.3 201.846 132.104 202.198 130.682 202.198ZM134.07 195.07C134.055 194.073 133.725 193.281 133.08 192.694C132.434 192.093 131.65 191.792 130.726 191.792C129.802 191.792 129.024 192.093 128.394 192.694C127.778 193.281 127.426 194.073 127.338 195.07H134.07ZM141.664 189.878V191.99C142.441 190.45 143.651 189.68 145.294 189.68V192.276H144.656C143.673 192.276 142.925 192.525 142.412 193.024C141.913 193.523 141.664 194.388 141.664 195.62V202H139.156V189.878H141.664ZM146.169 189.878H148.853L152.285 199.756L155.717 189.878H158.423L153.803 202H150.767L146.169 189.878ZM163.135 186.666C163.135 187.121 162.981 187.502 162.673 187.81C162.365 188.118 161.984 188.272 161.529 188.272C161.089 188.272 160.715 188.118 160.407 187.81C160.099 187.502 159.945 187.121 159.945 186.666C159.945 186.211 160.099 185.83 160.407 185.522C160.715 185.214 161.089 185.06 161.529 185.06C161.984 185.06 162.365 185.214 162.673 185.522C162.981 185.83 163.135 186.211 163.135 186.666ZM160.275 202V189.878H162.783V202H160.275ZM171.18 202.198C169.42 202.198 167.99 201.626 166.89 200.482C165.79 199.338 165.24 197.82 165.24 195.928C165.24 194.036 165.797 192.525 166.912 191.396C168.026 190.252 169.464 189.68 171.224 189.68C172.998 189.68 174.436 190.23 175.536 191.33C176.636 192.415 177.186 193.838 177.186 195.598C177.186 196.023 177.156 196.419 177.098 196.786H167.814C167.872 197.798 168.21 198.605 168.826 199.206C169.456 199.793 170.241 200.086 171.18 200.086C172.544 200.086 173.504 199.521 174.062 198.392H176.768C176.401 199.507 175.734 200.423 174.766 201.142C173.798 201.846 172.602 202.198 171.18 202.198ZM174.568 195.07C174.553 194.073 174.223 193.281 173.578 192.694C172.932 192.093 172.148 191.792 171.224 191.792C170.3 191.792 169.522 192.093 168.892 192.694C168.276 193.281 167.924 194.073 167.836 195.07H174.568ZM193.47 189.878H195.934L192.172 202H189.532L187.09 193.046L184.648 202H182.008L178.224 189.878H180.776L183.306 199.624L185.88 189.878H188.498L190.962 199.58L193.47 189.878Z" fill="black"/>
<rect x="373" y="179" width="103" height="33" rx="16.5" fill="url(#paint0_linear_24_1108)"/>
<path d="M407.298 190.27V200H405.702V193.336L402.734 200H401.628L398.646 193.336V200H397.05V190.27H398.772L402.188 197.9L405.59 190.27H407.298ZM414.408 198.082C414.874 197.615 415.108 196.967 415.108 196.136C415.108 195.305 414.879 194.661 414.422 194.204C413.974 193.737 413.428 193.504 412.784 193.504C412.14 193.504 411.598 193.737 411.16 194.204C410.721 194.661 410.502 195.31 410.502 196.15C410.502 196.981 410.716 197.629 411.146 198.096C411.575 198.553 412.107 198.782 412.742 198.782C413.386 198.782 413.941 198.549 414.408 198.082ZM412.742 200.126C411.622 200.126 410.698 199.762 409.97 199.034C409.242 198.297 408.878 197.335 408.878 196.15C408.878 194.955 409.251 193.994 409.998 193.266C410.754 192.529 411.692 192.16 412.812 192.16C413.932 192.16 414.865 192.529 415.612 193.266C416.368 193.994 416.746 194.951 416.746 196.136C416.746 197.321 416.358 198.283 415.584 199.02C414.818 199.757 413.871 200.126 412.742 200.126ZM419.919 192.286V193.504C420.433 192.608 421.254 192.16 422.383 192.16C423.251 192.16 423.965 192.449 424.525 193.028C425.095 193.607 425.379 194.414 425.379 195.45V200H423.797V195.688C423.797 194.997 423.625 194.47 423.279 194.106C422.934 193.733 422.463 193.546 421.865 193.546C421.268 193.546 420.792 193.733 420.437 194.106C420.092 194.47 419.919 194.997 419.919 195.688V200H418.323V192.286H419.919ZM431.153 193.588H429.277V197.858C429.277 198.147 429.343 198.357 429.473 198.488C429.613 198.609 429.847 198.67 430.173 198.67H431.153V200H429.893C428.409 200 427.667 199.286 427.667 197.858V193.588H426.757V192.286H427.667V190.368H429.277V192.286H431.153V193.588ZM434.22 189.64V193.504C434.734 192.608 435.555 192.16 436.684 192.16C437.552 192.16 438.266 192.449 438.826 193.028C439.396 193.607 439.68 194.414 439.68 195.45V200H438.098V195.688C438.098 194.997 437.926 194.47 437.58 194.106C437.235 193.733 436.764 193.546 436.166 193.546C435.569 193.546 435.093 193.733 434.738 194.106C434.393 194.47 434.22 194.997 434.22 195.688V200H432.624V189.64H434.22ZM441.716 200V189.64H443.312V200H441.716ZM447.535 199.874L444.497 192.286H446.275L448.445 198.166L450.699 192.286H452.351L447.619 203.626H445.967L447.535 199.874Z" fill="white"/>
<path d="M168 257V419.5" stroke="#FCFCFC" stroke-width="3" stroke-linecap="round" stroke-linejoin="round"/>
<path d="M240 257V419.5" stroke="#FCFCFC" stroke-width="3" stroke-linecap="round" stroke-linejoin="round"/>
<path d="M312 257V419.5" stroke="#FCFCFC" stroke-width="3" stroke-linecap="round" stroke-linejoin="round"/>
<path d="M384 257V419.5" stroke="#FCFCFC" stroke-width="3" stroke-linecap="round" stroke-linejoin="round"/>
<path d="M456 257V419.5" stroke="#FCFCFC" stroke-width="3" stroke-linecap="round" stroke-linejoin="round"/>
<path d="M207.5 409.5C190.3 425.5 165.333 398.833 155 383.5V448H478V275.5C462.5 290 424 371.5 400 353C379.248 337.004 370.5 320.5 361.5 318.5C334 312.5 323.5 363 313 383C302.5 403 265.5 371 248 371.5C230.5 372 229 389.5 207.5 409.5Z" fill="#F9F9F9"/>
<path d="M155 383.5C165.333 398.833 190.3 425.5 207.5 409.5C229 389.5 230.5 372 248 371.5C265.5 371 302.5 403 313 383C323.5 363 334 312.5 361.5 318.5C370.5 320.5 379.248 337.004 400 353C424 371.5 462.5 290 478 275.5" stroke="black" stroke-width="3" stroke-linecap="round" stroke-linejoin="round"/>
<path d="M323.643 272.304H330.683V273.904H325.323V277.088C325.547 276.789 325.878 276.539 326.315 276.336C326.763 276.133 327.28 276.032 327.867 276.032C328.464 276.032 329.014 276.149 329.515 276.384C330.027 276.619 330.416 276.933 330.683 277.328C331.216 278.096 331.483 278.96 331.483 279.92C331.483 281.136 331.136 282.123 330.443 282.88C329.75 283.627 328.784 284 327.547 284C326.32 284 325.355 283.712 324.651 283.136C323.947 282.56 323.526 281.797 323.387 280.848H325.163C325.28 281.349 325.542 281.749 325.947 282.048C326.352 282.336 326.896 282.48 327.579 282.48C328.262 282.48 328.79 282.251 329.163 281.792C329.547 281.333 329.739 280.725 329.739 279.968C329.739 279.2 329.547 278.613 329.163 278.208C328.779 277.792 328.214 277.584 327.467 277.584C326.944 277.584 326.502 277.717 326.139 277.984C325.787 278.24 325.531 278.592 325.371 279.04H323.643V272.304ZM332.998 282.752H334.726C335.142 284.331 335.067 285.408 334.502 285.984C334.193 286.315 333.739 286.48 333.142 286.48V285.68C333.409 285.68 333.601 285.616 333.718 285.488C333.846 285.36 333.91 285.147 333.91 284.848V284.512H332.998V282.752ZM337.096 272.304H344.136V273.904H338.776V277.088C339 276.789 339.331 276.539 339.768 276.336C340.216 276.133 340.734 276.032 341.32 276.032C341.918 276.032 342.467 276.149 342.968 276.384C343.48 276.619 343.87 276.933 344.136 277.328C344.67 278.096 344.936 278.96 344.936 279.92C344.936 281.136 344.59 282.123 343.896 282.88C343.203 283.627 342.238 284 341 284C339.774 284 338.808 283.712 338.104 283.136C337.4 282.56 336.979 281.797 336.84 280.848H338.616C338.734 281.349 338.995 281.749 339.4 282.048C339.806 282.336 340.35 282.48 341.032 282.48C341.715 282.48 342.243 282.251 342.616 281.792C343 281.333 343.192 280.725 343.192 279.968C343.192 279.2 343 278.613 342.616 278.208C342.232 277.792 341.667 277.584 340.92 277.584C340.398 277.584 339.955 277.717 339.592 277.984C339.24 278.24 338.984 278.592 338.824 279.04H337.096V272.304ZM353.411 280.176C353.411 279.461 353.219 278.891 352.835 278.464C352.462 278.027 351.928 277.808 351.235 277.808C350.542 277.808 349.966 278.005 349.507 278.4C349.059 278.784 348.835 279.344 348.835 280.08C348.835 280.816 349.043 281.403 349.459 281.84C349.886 282.267 350.456 282.48 351.171 282.48C351.886 282.48 352.435 282.272 352.819 281.856C353.214 281.44 353.411 280.88 353.411 280.176ZM351.171 273.568C350.328 273.568 349.699 273.893 349.283 274.544C348.867 275.184 348.648 276.251 348.627 277.744C348.904 277.275 349.31 276.912 349.843 276.656C350.376 276.4 350.952 276.272 351.571 276.272C352.638 276.272 353.502 276.613 354.163 277.296C354.824 277.979 355.155 278.907 355.155 280.08C355.155 281.243 354.819 282.187 354.147 282.912C353.475 283.637 352.536 284 351.331 284C349.678 284 348.542 283.445 347.923 282.336C347.603 281.781 347.379 281.152 347.251 280.448C347.123 279.733 347.059 278.885 347.059 277.904C347.059 274 348.435 272.048 351.187 272.048C352.254 272.048 353.091 272.336 353.699 272.912C354.318 273.488 354.68 274.197 354.787 275.04H353.107C352.872 274.059 352.227 273.568 351.171 273.568ZM359.245 272.784C359.799 272.485 360.471 272.336 361.261 272.336C362.05 272.336 362.722 272.485 363.277 272.784C363.831 273.072 364.258 273.488 364.557 274.032C364.866 274.576 365.085 275.184 365.213 275.856C365.351 276.517 365.421 277.28 365.421 278.144C365.421 279.008 365.351 279.776 365.213 280.448C365.085 281.109 364.866 281.717 364.557 282.272C364.258 282.816 363.831 283.237 363.277 283.536C362.722 283.824 362.05 283.968 361.261 283.968C360.471 283.968 359.799 283.824 359.245 283.536C358.69 283.237 358.258 282.816 357.949 282.272C357.65 281.717 357.431 281.109 357.293 280.448C357.165 279.776 357.101 279.008 357.101 278.144C357.101 277.28 357.165 276.517 357.293 275.856C357.431 275.184 357.65 274.576 357.949 274.032C358.258 273.488 358.69 273.072 359.245 272.784ZM361.261 274C360.749 274 360.327 274.112 359.997 274.336C359.666 274.549 359.426 274.869 359.277 275.296C359.021 276.032 358.893 276.981 358.893 278.144C358.893 279.317 359.021 280.272 359.277 281.008C359.575 281.872 360.237 282.304 361.261 282.304C362.285 282.304 362.946 281.872 363.245 281.008C363.501 280.272 363.629 279.317 363.629 278.144C363.629 276.981 363.501 276.032 363.245 275.296C362.946 274.432 362.285 274 361.261 274ZM375.095 280.832C375.095 281.653 374.791 282.379 374.183 283.008C373.575 283.637 372.743 284 371.687 284.096V285.392H370.775V284.096C369.751 284.021 368.924 283.717 368.295 283.184C367.665 282.64 367.351 281.925 367.351 281.04H369.303C369.377 281.947 369.868 282.469 370.775 282.608V279.088C369.804 278.864 369.121 278.635 368.727 278.4C368.247 278.123 367.916 277.824 367.735 277.504C367.479 277.056 367.351 276.544 367.351 275.968C367.351 275.061 367.665 274.32 368.295 273.744C368.924 273.168 369.751 272.837 370.775 272.752V271.456H371.687V272.752C372.647 272.827 373.415 273.12 373.991 273.632C374.577 274.133 374.908 274.832 374.983 275.728H373.031C372.999 275.387 372.86 275.083 372.615 274.816C372.38 274.549 372.071 274.373 371.687 274.288V277.744C372.7 277.979 373.377 278.197 373.719 278.4C374.22 278.709 374.535 278.981 374.663 279.216C374.951 279.717 375.095 280.256 375.095 280.832ZM370.775 274.24C370.295 274.304 369.911 274.475 369.623 274.752C369.345 275.019 369.207 275.387 369.207 275.856C369.207 276.315 369.34 276.667 369.607 276.912C369.884 277.157 370.273 277.355 370.775 277.504V274.24ZM371.687 282.608C372.177 282.533 372.561 282.347 372.839 282.048C373.116 281.739 373.255 281.371 373.255 280.944C373.255 280.507 373.116 280.165 372.839 279.92C372.572 279.675 372.188 279.477 371.687 279.328V282.608Z" fill="black"/>
<path d="M328.428 296.616V300H327.06V291.66H329.94C330.884 291.66 331.612 291.896 332.124 292.368C332.636 292.832 332.892 293.424 332.892 294.144C332.892 294.704 332.72 295.208 332.376 295.656C332.04 296.104 331.52 296.396 330.816 296.532L333.024 300H331.356L329.268 296.616H328.428ZM328.428 292.728V295.548H329.94C330.46 295.548 330.848 295.424 331.104 295.176C331.36 294.928 331.488 294.584 331.488 294.144C331.488 293.696 331.36 293.348 331.104 293.1C330.848 292.852 330.46 292.728 329.94 292.728H328.428ZM338.998 298.32C339.398 297.912 339.598 297.368 339.598 296.688C339.598 296.008 339.398 295.468 338.998 295.068C338.606 294.668 338.138 294.468 337.594 294.468C337.05 294.468 336.578 294.664 336.178 295.056C335.786 295.448 335.59 295.984 335.59 296.664C335.59 297.344 335.786 297.892 336.178 298.308C336.578 298.716 337.05 298.92 337.594 298.92C338.138 298.92 338.606 298.72 338.998 298.32ZM337.306 300.108C336.426 300.108 335.686 299.788 335.086 299.148C334.486 298.5 334.186 297.676 334.186 296.676C334.186 295.668 334.482 294.852 335.074 294.228C335.674 293.596 336.418 293.28 337.306 293.28C337.826 293.28 338.282 293.4 338.674 293.64C339.074 293.872 339.382 294.18 339.598 294.564V293.388H340.978V300H339.598V298.764C339.374 299.172 339.066 299.5 338.674 299.748C338.282 299.988 337.826 300.108 337.306 300.108ZM345.979 294.504H344.371V298.164C344.371 298.412 344.427 298.592 344.539 298.704C344.659 298.808 344.859 298.86 345.139 298.86H345.979V300H344.899C343.627 300 342.991 299.388 342.991 298.164V294.504H342.211V293.388H342.991V291.744H344.371V293.388H345.979V294.504ZM348.8 291.636C348.8 291.884 348.716 292.092 348.548 292.26C348.38 292.428 348.172 292.512 347.924 292.512C347.684 292.512 347.48 292.428 347.312 292.26C347.144 292.092 347.06 291.884 347.06 291.636C347.06 291.388 347.144 291.18 347.312 291.012C347.48 290.844 347.684 290.76 347.924 290.76C348.172 290.76 348.38 290.844 348.548 291.012C348.716 291.18 348.8 291.388 348.8 291.636ZM347.24 300V293.388H348.608V300H347.24ZM351.772 293.388V294.432C352.212 293.664 352.916 293.28 353.884 293.28C354.628 293.28 355.24 293.528 355.72 294.024C356.208 294.52 356.452 295.212 356.452 296.1V300H355.096V296.304C355.096 295.712 354.948 295.26 354.652 294.948C354.356 294.628 353.952 294.468 353.44 294.468C352.928 294.468 352.52 294.628 352.216 294.948C351.92 295.26 351.772 295.712 351.772 296.304V300H350.404V293.388H351.772ZM360.861 300.108C359.981 300.108 359.241 299.788 358.641 299.148C358.041 298.5 357.741 297.676 357.741 296.676C357.741 295.668 358.037 294.852 358.629 294.228C359.229 293.596 359.973 293.28 360.861 293.28C361.381 293.28 361.837 293.4 362.229 293.64C362.629 293.872 362.937 294.18 363.153 294.564V293.388H364.533V300.108C364.533 301.036 364.245 301.792 363.669 302.376C363.101 302.968 362.341 303.264 361.389 303.264C360.437 303.264 359.665 303.052 359.073 302.628C358.481 302.212 358.145 301.644 358.065 300.924H359.421C359.525 301.268 359.745 301.544 360.081 301.752C360.425 301.968 360.853 302.076 361.365 302.076C361.877 302.076 362.301 301.908 362.637 301.572C362.981 301.236 363.153 300.748 363.153 300.108V298.764C362.929 299.172 362.621 299.5 362.229 299.748C361.837 299.988 361.381 300.108 360.861 300.108ZM362.553 298.32C362.953 297.912 363.153 297.368 363.153 296.688C363.153 296.008 362.953 295.468 362.553 295.068C362.161 294.668 361.693 294.468 361.149 294.468C360.605 294.468 360.133 294.664 359.733 295.056C359.341 295.448 359.145 295.984 359.145 296.664C359.145 297.344 359.341 297.892 359.733 298.308C360.133 298.716 360.605 298.92 361.149 298.92C361.693 298.92 362.161 298.72 362.553 298.32ZM366.03 295.284C366.03 294.724 366.266 294.252 366.738 293.868C367.21 293.476 367.83 293.28 368.598 293.28C369.366 293.28 369.974 293.472 370.422 293.856C370.878 294.232 371.122 294.748 371.154 295.404H369.75C369.726 295.076 369.61 294.82 369.402 294.636C369.202 294.452 368.918 294.36 368.55 294.36C368.182 294.36 367.894 294.444 367.686 294.612C367.478 294.772 367.374 294.988 367.374 295.26C367.374 295.524 367.506 295.732 367.77 295.884C368.034 296.036 368.354 296.148 368.73 296.22C369.114 296.292 369.494 296.38 369.87 296.484C370.254 296.588 370.578 296.78 370.842 297.06C371.106 297.332 371.238 297.7 371.238 298.164C371.238 298.74 370.994 299.208 370.506 299.568C370.026 299.928 369.406 300.108 368.646 300.108C367.886 300.108 367.27 299.924 366.798 299.556C366.326 299.188 366.066 298.664 366.018 297.984H367.434C367.458 298.312 367.578 298.568 367.794 298.752C368.01 298.936 368.302 299.028 368.67 299.028C369.046 299.028 369.342 298.948 369.558 298.788C369.782 298.62 369.894 298.4 369.894 298.128C369.894 297.856 369.762 297.644 369.498 297.492C369.234 297.34 368.91 297.228 368.526 297.156C368.15 297.076 367.77 296.988 367.386 296.892C367.01 296.788 366.69 296.604 366.426 296.34C366.162 296.076 366.03 295.724 366.03 295.284Z" fill="black"/>
<circle cx="387" cy="338" r="10" fill="url(#paint1_linear_24_1108)"/>
<circle cx="387" cy="338" r="5" fill="white"/>
</g>
<rect x="0.5" y="0.5" width="571" height="399" rx="8.5" stroke="black" stroke-opacity="0.05"/>
<defs>
<filter id="filter0_d_24_1108" x="31" y="108" width="509" height="391" filterUnits="userSpaceOnUse" color-interpolation-filters="sRGB">
<feFlood flood-opacity="0" result="BackgroundImageFix"/>
<feColorMatrix in="SourceAlpha" type="matrix" values="0 0 0 0 0 0 0 0 0 0 0 0 0 0 0 0 0 0 127 0" result="hardAlpha"/>
<feOffset dy="-4"/>
<feGaussianBlur stdDeviation="18"/>
<feComposite in2="hardAlpha" operator="out"/>
<feColorMatrix type="matrix" values="0 0 0 0 0 0 0 0 0 0 0 0 0 0 0 0 0 0 0.05 0"/>
<feBlend mode="normal" in2="BackgroundImageFix" result="effect1_dropShadow_24_1108"/>
<feBlend mode="normal" in="SourceGraphic" in2="effect1_dropShadow_24_1108" result="shape"/>
</filter>
<linearGradient id="paint0_linear_24_1108" x1="433.129" y1="225.735" x2="413.952" y2="165.879" gradientUnits="userSpaceOnUse">
<stop stop-color="#FB432C"/>
<stop offset="1" stop-color="#FF591E"/>
</linearGradient>
<linearGradient id="paint1_linear_24_1108" x1="388.676" y1="356.324" x2="368.676" y2="336.324" gradientUnits="userSpaceOnUse">
<stop stop-color="#FB432C"/>
<stop offset="1" stop-color="#FF591E"/>
</linearGradient>
<clipPath id="clip0_24_1108">
<rect x="1" y="1" width="570" height="398" rx="8" fill="white"/>
</clipPath>
</defs>
</svg>
